<mxfile host="Electron" agent="Mozilla/5.0 (Macintosh; Intel Mac OS X 10_15_7) AppleWebKit/537.36 (KHTML, like Gecko) draw.io/26.1.1 Chrome/132.0.6834.210 Electron/34.3.3 Safari/537.36" version="26.1.1">
  <diagram id="C5RBs43oDa-KdzZeNtuy" name="Page-1">
    <mxGraphModel dx="1224" dy="896" grid="1" gridSize="10" guides="1" tooltips="1" connect="1" arrows="1" fold="1" page="1" pageScale="1" pageWidth="827" pageHeight="1169" math="0" shadow="0">
      <root>
        <mxCell id="WIyWlLk6GJQsqaUBKTNV-0" />
        <mxCell id="WIyWlLk6GJQsqaUBKTNV-1" parent="WIyWlLk6GJQsqaUBKTNV-0" />
        <mxCell id="ASZsgvlguslv8uvF_fy1-22" value="Edge Device" style="swimlane;whiteSpace=wrap;html=1;" vertex="1" parent="WIyWlLk6GJQsqaUBKTNV-1">
          <mxGeometry x="300" y="490" width="660" height="190" as="geometry" />
        </mxCell>
        <mxCell id="ASZsgvlguslv8uvF_fy1-23" value="LLM" style="rounded=1;whiteSpace=wrap;html=1;verticalAlign=top;align=center;" vertex="1" parent="ASZsgvlguslv8uvF_fy1-22">
          <mxGeometry x="200" y="35" width="300" height="125" as="geometry" />
        </mxCell>
        <mxCell id="ASZsgvlguslv8uvF_fy1-26" value="Format Personalized Message" style="rounded=1;whiteSpace=wrap;html=1;fontSize=12;glass=0;strokeWidth=1;shadow=0;" vertex="1" parent="ASZsgvlguslv8uvF_fy1-22">
          <mxGeometry x="527" y="100" width="103" height="60" as="geometry" />
        </mxCell>
        <mxCell id="ASZsgvlguslv8uvF_fy1-28" value="Format Broadcasting Message" style="rounded=1;whiteSpace=wrap;html=1;fontSize=12;glass=0;strokeWidth=1;shadow=0;" vertex="1" parent="ASZsgvlguslv8uvF_fy1-22">
          <mxGeometry x="527" y="35" width="103" height="60" as="geometry" />
        </mxCell>
        <mxCell id="ASZsgvlguslv8uvF_fy1-2" value="Send request&amp;nbsp;&lt;div&gt;(loc, spd, acc, heading)&lt;/div&gt;" style="edgeStyle=orthogonalEdgeStyle;rounded=0;orthogonalLoop=1;jettySize=auto;html=1;" edge="1" parent="WIyWlLk6GJQsqaUBKTNV-1" source="ASZsgvlguslv8uvF_fy1-0" target="ASZsgvlguslv8uvF_fy1-1">
          <mxGeometry x="-0.1429" y="23" relative="1" as="geometry">
            <mxPoint as="offset" />
          </mxGeometry>
        </mxCell>
        <mxCell id="ASZsgvlguslv8uvF_fy1-0" value="" style="shape=mxgraph.signs.transportation.car_4;html=1;pointerEvents=1;fillColor=#000000;strokeColor=none;verticalLabelPosition=bottom;verticalAlign=top;align=center;" vertex="1" parent="WIyWlLk6GJQsqaUBKTNV-1">
          <mxGeometry x="100" y="570" width="60" height="46" as="geometry" />
        </mxCell>
        <mxCell id="ASZsgvlguslv8uvF_fy1-5" value="" style="edgeStyle=orthogonalEdgeStyle;rounded=0;orthogonalLoop=1;jettySize=auto;html=1;" edge="1" parent="WIyWlLk6GJQsqaUBKTNV-1" source="ASZsgvlguslv8uvF_fy1-1" target="ASZsgvlguslv8uvF_fy1-4">
          <mxGeometry relative="1" as="geometry" />
        </mxCell>
        <mxCell id="ASZsgvlguslv8uvF_fy1-1" value="Receive Ego Veh Data" style="rounded=1;whiteSpace=wrap;html=1;fontSize=12;glass=0;strokeWidth=1;shadow=0;" vertex="1" parent="WIyWlLk6GJQsqaUBKTNV-1">
          <mxGeometry x="320" y="546.5" width="60" height="93" as="geometry" />
        </mxCell>
        <mxCell id="ASZsgvlguslv8uvF_fy1-6" style="edgeStyle=orthogonalEdgeStyle;rounded=0;orthogonalLoop=1;jettySize=auto;html=1;exitX=1;exitY=0.5;exitDx=0;exitDy=0;entryX=0.5;entryY=0;entryDx=0;entryDy=0;" edge="1" parent="WIyWlLk6GJQsqaUBKTNV-1" source="ASZsgvlguslv8uvF_fy1-3" target="ASZsgvlguslv8uvF_fy1-4">
          <mxGeometry relative="1" as="geometry" />
        </mxCell>
        <mxCell id="ASZsgvlguslv8uvF_fy1-3" value="" style="shape=image;verticalLabelPosition=bottom;labelBackgroundColor=default;verticalAlign=top;aspect=fixed;imageAspect=0;image=data:image/png,iVBORw0KGgoAAAANSUhEUgAAAgAAAAIACAYAAAD0eNT6AAAACXBIWXMAAA7SAAAO0gFcPFpKAAAAGXRFWHRTb2Z0d2FyZQB3d3cuaW5rc2NhcGUub3Jnm+48GgAAIABJREFUeJzt3Xm8XVV5//FPbm7mmZAQkgAhgmRQZmWGAGGepEq1tqJSwaGtVjtQrbUOteJQp4oUq1KxWsWJIRiGoGEUhDBnYkgIISQkIQlJyHhz7++P55zfObm5w9lr7b3X2vt836/Xet2bm7vPefY95+z17DWCiIiIiIiIiIiIiIiIiIiIiIiIiIiIiIiIiIiIiIiIiIiIiIiIiIiIiIiIiIiIiIiIiIiIiIiIiIiIiIiIiIiIiIiIiIiIiIiIiIiIiIiIiIiIiIiIiIiIiIiIiIiIiIiIiIiIiIiIiIiIiIiIiIiIiIiIiIiIiIiIiIiIiIiIiIiIiIiIiIiIiIiIiIiIiDSLPqEDEJFUtALDuvm/IUD/hI+3HdjSzf9tAtoSPp6IREYJgEj2RgKjsAp6MDAUGAEMqvx7VOXrYGB45fcGUqvQhwN9Kz8bhH1uR1b+z6VyT8sO4PXK9xuADmArsA3YBWys/N+mys83V362pVLW132/sfL/Wyq/v77ymCKSESUAIo0bAowD9gHGAHtjlXe17NXp39Wf6XPmph1LBOrLui5+thZYA7wCrKKWlIhID3RhkmbXilXoBwATgH2xyn1fYGzl+3GV7wcHilGS2UItGVgDrK77fiWwAlhW+dmuQDGKBKcEQMpuLDAZ2A+r4KsVffX7cVjzujSfNixRWIYlBS8BL1a+Xw48jyUNIqWkBEDKYBQwHZiGVfbVchDW1y7iahvwMrCkUhYA8yvfv4gGQ0qBKQGQohgATAGmAm+q+3og0C9gXNK8dmKJwHxqicECYBE2QFIkakoAJEZvAI4EDsXu6t+E3dG3hgxKpEFtWPfB08BC4ElgHpYsiERDCYCENh44qq4cgw28EymbjcBTWDJQLQuw6ZMiuVMCIHnqD7wVOBk4qfL9XkEjEgnrVeCPwL3APcDDqPtAcqIEQLI0CLurPwGYWfk6KGhEInHbCjwK3AfMAe6v/EwkdUoAJG1jgbOBS4AzsMF7IuJmG5YMzAJ+jU1PFEmFEgDx1Qc4GrgQOB84PGw4IqX2GHBLpcxD4wfEgxIAcTUeeA/wAWy+vYjk60Xg/4D/Al4IG4oUkRIASWIA8Dbg/VjzfkvYcEQEW874TuA64CZsJ0eRXikBkEb0B94HfAZbQldE4rQa+DrwbTR4UHqhBEB6oopfpJiUCEivlABId84HvottoiMixbQM+DAwO3QgEh/14UpnA4DvYaOMVfmLFNsBwG+Ba7AWPZH/Ty0AUm8YdrE4MXQgIpK6e4Fzgc2hA5E4KAGQqr7YymMzAschItm5CzgLmzkgTa5v6AAkGp8ArggdhIhkajKwAXgwdCASnloABGwsyHJscR8RKbeXsLEB7aEDkbA0CFDABvup8hdpDhMrRZqcEgABaAsdgIjkamfoACQ8JQAC8DLwXOggRCQXzwCrQgch4SkBELAdxf49dBAikosvol0EBc0CkJrHgSnAm0IHIiKZ+V/gs6GDkDgoAZB6NwOHANNDByIiqfsZ8F40+l8qlABIvXbgV8A24BT0/hApgx3AJ4G/Q5W/1NE6ANKdQ7E9AY4JHYiIOPsD8EHgqdCBSHyKngCMwPqsB2Ej2RejJS7T1Ae4APhX4MjAsYhI4+YBnwNmoQF/aeqLjZXaF9tm+WngtaARNaFDsf7qNuzNXS0rgX/BdrST9PQBLsQuKh0qKirRloexpL3oN3exGQh8Bqtj6v/ebcBNwJvDhdZc3o/1afX0IXgSy9AkfccA/wWsJ/zFTkVFxT6L3wXeimRhPFan9PQabMcGWEqG3oE18TfyoXgSy9okG4OAdwN30vhroqKikk5pA24H/gxd57I0CGvmb+Q12YXVUZKBNwObSPYh+UyQSJvPWKxl5lfYXuOhL44qKmUsm4BfAu8DxiB5+BzJXyOtpZKyUdhStUk/MCvRVLa8DQTOxpokXyD8RVNFpchlKXA1cBYa25S3VuAVkr9mz2J1lqSgBbgV9w+QFrUJazxwCXAtMB+bhxz6oqqiEmt5GbgBuAJdu0I7FPfX8Q5085mKL+H3gTor/5ClBxOwsQPfxWYV9DagU0WlrGU78Ah2h/9naEvu2JyD3+v7b/mHnEzsU0UuxvqVfeI8Gbg3nXAkA/2Bw4CjKuVo7M6nX8igRFK2ExtMNg+r9OdhA5V3hAxKejQD+L3H8R3A27Ap61GKOQHYH9ugxqcvpR0YDWxIJSLJy0Cs+e1QYCo2qGYqsF/IoEQa9CKwEOvyWohV9E9iS2xLcewFrMFv19xXgcOBl1KJKGWxJgCtWOZ1oufjzMIWxZByGM7uCcF04GAsWVSLgeRpJ7AMG5z8NLtX+BsDxiXpuhU41/Mx7gFOI8JVamNNAD6PrejnYye2MMbj/uFI5FqxJOAN3ZQh4UKTAtsMLAGe76K8iM3Fl3I7EngQ/xuMz2JTCqMSYwIwA5iD/wjKfwK+7B1NcxiMdZeUtYlyHNZ9MAFLFCZ2+n48NhZBmscOYAXWNPtiF98vx6aAldFArFl7S+hACuJK4CrPx9gFnEpk49FiSwBGA09gF2cfvwDeiQ3CkN4dCtwGfANb5ndT2HBy1wdLEiZWvo7FlpIe08X3eweKURqzplJWY+uAdP5+JVbRV+d3N5NhwIeAT2Czo54MG05h9MGmZvqu8rccG/C83juilMSWAPwEmyLm4yngeKz5ThpzKJZ4QW1d8f/G+jhld/2wZKBaRiUo0rj1CUp9pa9m+T1NAi4HPkztfXgYSgCSGIptrey7yt+PgUv9w0lHTAnAxcCvPR9jPfAWrI9OGlefAFS1Y10xP8B2u9qed1AlNBzrbhmMXYir3w/H7s6GdPq/AVjCMbRy/Ais6XYgtkZ5H2Bk5f+Gsmc/Zf2xrjZj42nq7aSWYG/A7qS3Yl1I7dS2R60eux1rbl4PvF75fhM2WG5L3f9tqfx/s7VAZWEANgXtL4HT2XMkuxKA5A7Cdlsc2dsv9uJC4Bb/cMpjNLAKv0UXdmFL0Epyva14tQa4BpiJDbiT4htArWVCS8yWQytwBtaNt5aeP9OHBoqx6M7Ff/Ozl7EphlLxU/xX1fpC7lGXR5IlL9dirQLnoopDJLSBwHnAD7E5541+jpUAuPt3/Our63OPOlIX4v/HTGOaRjNzXfN6C7Yd8JXYKn4ikr3J2F4BN2DdLS6fXSUA7lqB+/Gvty7OO/DYjMBG5fr8Eddh07nEnc+mF/VlKdb8+C60rrlIWiZgn6n/wj5jaXxWlQD4mYSNW/F5DVZg43+a1rfxfyO/M/eoyyetBKBzqe5s9jGshSCmQacisZqMjRSv7qCZxWdTCYC/t+P/Onw996gjcQQ2Zcfnj3dN7lGXU1YJQOeyBpiNrfR4IWolEBkPXISNYbqN3gfvKQGIy/fwex12YjMymkoLNqfS5w/3PFriNS15JQBdlZeAG7Gln9+G3f2opUDKpg+2LPXFwGew9/wKwn3ulACkYyj+3TL302TXvMvx+4PtAk7JPeryCpkAdFU2YgnitcBfYa/1mMzOXiRdY7Alzf8aew//AVvbIPTnSglANk7D1r/weT0uyz1qwmQdo4HFla+u/hP4aDrhCF0vBBSjddh7ZyHwTN33S9hzsRqRLPXDWqumAodUSvX7WFd93IB9XhYAn8bWXpF0fBdbadHVWuy9sy6dcBoTIgH4NvA3HscvxSosLfWbnqIkAN1pwzZxWYkNPFzSqVSb6ESSGIVV8p3LeOBAbDXGGK3HKvn52Pu/+r0+B9kZgl1D3+DxGN8EPp5OOI3JOwE4GNs723XntQ6sae2etAISoPgJQG82YvsavIiNOVhR9311B7itwaKTEAZj04cnYJtA1e8SeUClDAsWXe86sPf0IqxyX4RV9AuJaLOZJnMatny6a726A5hGjkvZ550A/BKbOuHqOgL1lZRc2ROARryKtSCsxJpGV2OtCasr/67+bHWoAKUhYytlHLWdHSdg/fLjsJ0dx1OcpVjbsAphAbtX8ouwfRMkLj/Cb7OfG8hxanueCcDxwH0ez7kOmIJNJSuiMVh21w/binQBNpgxBkoAGteGJQtdlTV136/HWh42Yn2v1U1zpHfVTY5GYgulDMea40dXyhhsW+bRXZS+AeJNwzasUq+v5BcCz2J3hmXWio2f2AcbyzMf6xMvon2w1811HEgHcBzwUGoR9SCvjV36AF/DL+H4FMWs/I8F/g1rHqo//1XA1cBX0U57RdKKfcj3cTi2ugPea9SSg9ewO7ntWJJQ3TlvY+X7TZV/b6/8XrUyqCYUbdR2z6vuyJel6k6EYE3krey+K2F/rD90ANbMPqzyfXUnxOomRNXfG0Gtkq9+H3PTu6+N7N5sXx2U9wLx3BDkZQDwj8BHsNaZqnbgLmyg4h8DxOXjFSzuqx2P74PVCSenFlEEfFdMeog9t7Msgo/R+2JHj2HNlCHFNg1QJb2yAWs966qsqZTu/n9DCs/frGU1MBdbvvej2C59E5GqfbBrX09/wzb8BoyH0hfbNtjn/XNR7lFnpAXbd9r1D7GLYm40cxmNn+M83AdGpkEJgIqKW1kG3A58A9ug5yT8pjg3g/70XvnXlyKO+3oLftsGP0pJFgfyvfv/Yf4hezsWa4pNcp7/ECRSowRARaX70ob1xd8EXAW8F7vAl7mrIktXkuzvvw04Jkikfv4Hv/dd5q0AWWcYfbBMz3Wt4y3AG7FpW0UxDngEG3mcxDJsbnFH6hH1ToMARWx8RXVxqfqyGI3TSUsf7Fq3X8LjVmAtwa+kHlF29sPeO67rRTwKHE2YOiEVF+OXAX0h/5C99MdmOrie74H5hwyoBUClucomrI/2euCfsD0oDia/QdHNbDLur9s92CyqIvl3/N6rF+Yfcjqqd/+uJ76K4jWxfQ2/F/vE/EMGlAColLO8CtyL7dj2ceAsbIEfCeck/F7TL+cfspcR2IBQ1/N9hIKOBbgQvxf6Q/mH7OUc/DeEOCL3qI0SAJWil1XYQmEfwlYLDT2zRrpWbdJ2LbuAM3OP2s9f43fO5+Ufsr+7cT/h5yhWc9y+WN+Uz4u8HZtjHYISAJWili3A32FzyiV+g7Brnc9rvgq3dThC6Y/flsG/yz9kP0fh9wIXadpHH+BO/C9kP8078DpKAFSKWDYBJyBJtGIDq4cGjOH/8H/tb6NYTeNX4He+h+cfsruf4H6iz1OsgR6+zTsd1GY7hKIEQKWI5S+Q7gzAZl+9E/gctsb8U9Tuvg8NFxqHYNc839e/SN3E/bHVHl3P9Ue5R+xoIjadxvVEP5B/yM4mY9sS+76RP5h34J0oAVApWnkYAVs6+a3A+7ABcjdjaxb0tgJpyAQA7Jrn+x7YCEzKOW4fPue8Hetqjt6XcT/JZYRdES+JFmypT9838f/kG3aXlACoFK18lOYyCutavRRbjOgWrLXUdbW50AkA2OwM3/fB7yhOV0A//MYC/Fv+ISczGFtD3PUEi9Skk0bT/wPEMXhJCYBK0cpxlNN+2L4BH8P2Ebgb268h7b9fDAnAAOBB/M8ldAtqEn+F+3muxX1RoVy8F/eTW0PkJ1dnX2wXN5837SvYvuQxUAKgUrQScsyMr77AQdhU6Sux6Yt/xP+akqTEkACArZjqM0++A9t6uyizAgZj61O4nmvU4158VsH7XIB4Xf0UvzdsO3BB7lF3TwmAStHKQcSvHzZO6AKsor8eW9jldcL//WJJACCdNVQKM0gOv9UB5+YfbmMOwf1F3Mbu+0HH7GT836xfyz3qnikBUClaiSkB6A9MBy4BPouNuH+E5BuC5VliSgDAdlP0OZ924NTco3YzHr+1EKbmH3Lv/gP3E7ouQLwu+gEL8HujPkJ8Ax2VAKgUrYRIAPbC1h24HLve3YZN7fK9IQhRYksABmCb3/ic09MUZwG5H+N+nl8JEG+P+uPXj+O6W2De/ga/N+g24E25R907JQAqRStZJgCjsH05rgC+hS309XwE55xmiS0BALuz3YrfeX0496jd+Fxz1xDH4PH/7xLcT+aeAPG68N3UoQPbeSxGSgBUilZ8E4AWrH/+XOAfgO8Df8AGlIU+tzxKjAkAwD/jd15F2kTuAdzP8+0B4u3WTbifyKUB4nXxJfzemA8Rb/OUEgCVohXXBOAqrKk5jZXoilxiTQBasW5Sn3Mryjbyl+F+jr8JEG+XRuE+2GUDNi0idvvjd8HYQZxN/1VKAFSKVlwTgHkRxB5DiTUBAOsS3on7ub1OPFOsezIE96mfW7FWaS8tvg8A/Anu/RE/wSrW2P0zfmsUfAsboCIiIj17AviOx/GDgU+mFEuWXsc2RnIxEHhbirE489kJ74gA8Sa1H35TNl7G1uuOmVoAVIpW1ALgV2JuAQDrx38J9/Pbhi0yFDufnXNn+z65bwvAPrjPvXwUeMzz+fPwSfym7X0M27RCREQaswn4e4/jB2CLL8VuHu714OnA3j5P7psAvANb1tLFTz2fOw/7YQM1XN0H/CKlWESkmDqAx4FfA/+JDUS8DvgtNrNIuvZzbGaGq8spxlgA17qwH4FnA/wOt6aLXdi2wbHzWZ2qHTg2/5CdqAtApWilCF0Ai7HNX/brIZ4WbHGhb5HvzITYuwCqjsdvoaWv5h9yYvvjfo53BIgXsBGIOxoIsKtyd4B4kxqB3+YcP88/ZGdKAFSKVmJOANZgO5smnfa7H7Y9eB5/v6IkAAC/xP0811OMdQHuxe38tuFxfj5dAGdhTRAufubxvHn5AO6D99qAT6UYi4gUw5PAW7CtfNsSHrsceB+2Nsq2dMMqtE9hrcYuRgLvTzGWrLjeMA7Ato/O3Y9wy1h2AmMCxJtEK7bGt2vWeV3uEftRC4BK0UqMLQBzgaGOcXV2PNnuGlikFgCwnRRdz/U53Meq5WUfLGF0Ob8f5B1sX9yXxQ3WZ5HAO3B/s+0krp3KGqEEQKVoJbYE4DlgtGNM3bmE7DYaKloCcAjuFWQHcFH+ISd2F27nthLH1nzXLoC34n4XP8vxuDxd7nHsT7CLgYg0hzbgYuDVlB/3F8A3U37MolqMX9fxFWkFkiHXunEctp5AYq4JwLmOx0H8CcAkYKbjsR3Al9MLRUQK4AfAUxk99udJP7Eoqquwa6yLs+h5NkYMfOpGpzrZNQE4zfG4hcASx2Pzchnuf5fZ2DmKSHPYBnwuw8ffgG4qqp7GVp510Re/NV3y8CzwjOOxTnWyS0U3BBvl6iL2u/+++I0Y/UZagYhIIczB+mCz9L/YWADxu8ZeRvyDAV3ryGNw2K/GJQE4Hvfpf7c6HpeXU3FfoOhJ7GIgIs3jphyeYyXwxxyepwhuBxY4Hrs/cHKKsWTBtY4cgMPCcy4JwAyHY8DWdr7f8di8vMvj2GtSi0JEiuKekj1P7DqwNRZc+Vzj83AvsNnx2FOSHpBnAnAvyRfGyFN/bCSvi60UY3EjEUnXipye5+WcnqcIfoz7NvLvwG9zt6ztBB5wPDbzBGAIcHTSJ6mIffnfs4C9HI+9ARusIyLNYyO2WE8e8ko0imADtrGSi72wXfRiNtfxuGOBgUkOSJoAHI179jTX8bi8/KnHsd9PLQoRKQrXsVAuYr5rDcHnmutzrc+D683yQBKuB5A0AXAd/b8JeNTx2Dz0Bc5xPPZF4h/bICLpGwSMyum5JuT0PEVxD7DM8djz8NsHJ2sP496ylKiFPukfwWm1IeA+4u7/Pw73ZTz/D/fFKUSk2PbP6XliX8Qmbx3YSokuxmCr2cbKZxxAlAlA7HfI53kcq8F/Is3rzJI9T5H4bLl+fmpRZOM+x+MySwBG4r4BxyOOx+XF9c2wCHg8zUBEpFDy2GRmCrYZjuzuEeB5x2N9bvry4FpnvpEE29gnSQCOBPokDsfMczwuD+OBNzkem8ciICISr+PIfme9D2b8+EXmeg0+DNuCN1auCUALcESSX26Ua/P/C8Bax2PzMMPj2NhXNhSRbLVgm9Rk5UDgwxk+ftG5Lp3bB4d58zlajQ0wd9FwN0CSBMD1Ljnmu39wfxOsA/6QZiAiUkjnkE1XQB/gW9gyr9K1+3Bfg2VGinFkwbXubLiuTpIATHEIBOLv/5/heNztxD2zQUTycz0wPeXH/FfggpQfs2x2Anc4HhtzCwC4150N19WNJgB9kjxoJzEPkhuPDZpwcVeagYhIoQ0HbgEOTunxPgR8JqXHKjvXa/FUYGyagaTsMcfjUk8AxpNgZGEnCx2Py8MxHsfOTSsIESmFA4GHgJkej9EXG1NwDe6DrpuN68p5ffCrA7K2yPG4kTQ4wLHRBGCqYyBbgOWOx+bBdWDjS7hPPxGR8hqFdQ/egCUESczE+n2vTDuokluM+2ZJrnVAHpbhvulRQ3V2owmAa/P/YqDd8dg8uL74c9MMQkRKpQW4BJgP/Aj4E2wjta4cCHwcW/ntTmx6miTnul2y6+Z2eWgHnnU8tqE6u7XBB3NdhCLm5n9wTwAeTDUKESmjQcCllbITeAVrEX0dGFcpeweLrlz+ALzL4biYEwCwbgCXpLChOrvRBMB1vWvXPow87I+tCe0i9pkNIhKXfsDESpH0uV6T98Fek5dSjCVNrnVoQ3V2o10Arm/aZxyPy8M0x+N2Ak+kGYiIiHh5HPdp2a51QR4WOx7X0OZRjSYAri0Arts15sF1YOPTwLY0AxERES9bcO9yjnmfBddB9KklAANx3yp3heNxeXB90Z9KNQoRkfy0A0twH10eM9eWWddB7nlwTQDGAv17+6VGxgBMxG0+6i5gpcNxeXFtAYh5XIOICFhz+IvAAmw2wpLK949hgxDLyLW5POYE4GWsLu2b8LgWYAKwtKdfajQBcLGSuJfKdV2xSwmAiMRiC3ZNWoRV8NWvz2HjlZpJGbsAqrNHxjscux8pJAAuTwzxjqoE21xjnOOxsU9tFJHy2YBV7vOpVfILsXFWMa+1kifXm7N9sVkasSZMy3Grh3s9ppEEYC+HJ4a4E4DxuHVrtKMVAEUkO69Qu5OvVvYLcV/prpk8B3SQ/NregtUJsQ5afwm3JYt7rbuzTADWOB6XB9dZDSuJN0sUkeJYye598/OxGUarQgZVcNuB1TS4Dn4nE4k3AVjreNyo3n6hkQSg1wfpxnrH4/LQ0BSJLsTcqiEicakOxKuv5Bdgo9U3BYyrzJbjlgC41gl5cK1LgyYAGxyPy8O+jscpARCRzraz+0C8hZXyDLAjYFzNaDluy/tOSDuQFLkmAKl0AZSxBcD1nGJe10BEsrWRPSv5BcAL2FQtCc/1Gu1aJ+QhaAuA6xiAdY7H5aGM4xpEJB3r2bPZfj42paojYFzSu8z6ywMKmgAMc3zymLsARjoeF/M5iUgyy6ndydff0btWIhJeZpVlQK7nNLy3X2gkARjg+OQxrzZVxm4NEendp7EKfhEaiFdGZUwAXOvSXuvuRhKAfo5PHvPgl14zo24oARApttmhA5BMuV6jR6QaRbpc69Je9wJoZDOgXh+kGzEnAK6tGptTjUJERNLkerfseqObB9e1Z3o9pywTgJgXzCnjOYmINLvM7pYDyuycmrULoIznJCLS2ShgMjAdmFb39W2Uc2tz15s0JQCuD9KNmCtLtQCISJmMYs9KfjrdL3rmshdKEagFoKbXG91GEoCk+xBXxbwwRhnPSUTKrS92Nz8NmFop07D97IcGjCsmmfWXB9TmeFwqCUBmTx6Q6zk18vcSEfHRD1ubvvMd/VRgcMC4ikAt1jW9nlMjFdp23BYDirlJZbvjcTGfk0gzKUMT9jDs7n0qu9/RT8a9lbLZud54xty9m9k5NZIAlLFJpYznJNJMxgDPhg6iQd0NxJtEYzOxpHGuU7xdbwrz4Hrj2es5NZIAaFBFTcznJNJMDgMeCB1EJxOxO/pqc/0UrLIfEzKoJlPGFoDMBq1n2QIQc2Xpmu25riAoIul6N3BNgOdtAQ5k9wF40ytfdX0Iz/U12JZqFOnKbNp6s7YAuG7qE/N60SLN5ERsLvuNGT1+f+Bg9hxtPwUYmNFzij/Xa3TMG725dmuk0gLgerfsuotgHsq4YYRIs/kBtm3vkx6PMYRaxT4dOKTy9Q1o1k8RlXGjN9e6tNdWjUbe4GW8W1YCIFJ8ewF3A38LXA909PC7o+i62f4AyjGjQEwZE4DMWjUaSQDWOT55zJWl64s9NtUoRMTXSOB/gH8BfgEswLotx1K7s58GjAsUXyzagaXAQuxvtDJsOJlxvUaXMQHote5uJAEo493yq47HTUw1ChFJyxuAfwodRAR2YNMjF1Kr7BdVSswD3dLieo12rRPykFmrRrMmAC85HrdfqlGIiLjZATwHzMcq+fnYeIj5NEdF3539HY9bnmoU6drL8Ti1AHTDNQFQC4CI5GkD8Dy7V/ILsLv79oBxxcr1Ji3mBKCQLQAx95e7vtijsU03NqcYi4jISqxSX4RV9Iuwin5VyKAKZjgwwvHYFWkGkjLXhaRSGQTo2jcSc3P5K9gcSZcFFt4IPJpuOCLSBDqAF9izkl9E3IPQiuIQx+O2A6vTDCRlrnVpr3V3IwlAGZvLd2HndaDDsVNQAiAi3dtJrdm+WslX7+63BIyr7KY4HrecuLtTXBOAXuvuRhIA1+byvYFBwFbH47O2GPcEQESkfiBetW++Oigv1utemblemxelGkW6BmNdzy5e7O0XGkkAVmF3zEm3p+wDTMA+IDFaCJztcNzUtAMRkai9xp7N9gux5vyY7xybTRkTANeW9J1YV3ePGkkA2rABKi6BTCTeBGCx43FHpBqFiMRiPXveyc/HFtDpaZVBicORjsfFnAC4TmtcQQPJaaNrXS/HLQE4wOGYvCx0PG4yNi1Dg3ZEimkZu9/JV0vMi8FIz/YGJjke63ozmAfXBKChsXuNJgCuAwFj7i+fj2X1SdcB7wMcBcxJPSIRSUsbdudeX8lXB+VpGm/5HOV4XAdWF8TKdWZDQ2P3Gk0AXnAMIuYE4FXKEpJyAAAgAElEQVTsvFwGAioBEInLs8DNwB+xyn4x7luZS/Ec7Xjc88Tdmutah77QyC81mgC49pHEnAAAPIJbAnBC2oGIiJPXqO0GqAF5zcv1mvxIqlGkL9OBjS0NPphrf/kbcFtsJy/zHI87ieSzIkQkXeuAU7DdAFX5N2YkcCzuK+bFqBU40fHYmBOA/tiYMxcNJQBZtwD0Aw7CPYHImuuLPxI4HPcEQkT8XQY8ETqISO2DbYNc3Q55aqWMr/z/YcCTYUJL3ZHAMMdjY76GH0TjdXRnqSYA67E5hfs4BDKNeBOAP2KDhVz+yKcQ95tHpMzuA24KHURgfbBR4lOA6exe2bvuIFdEpzgetxN4OM1AUjbN8biXgY2N/GKSim8RbgnAEcCvHI7LwyZsWd+3Ohx7JvD1dMMRkQb9NHQAOWrFKvrJWEU/rfL1UNzvfMvkLMfjHgZeTzOQlLnObGj4hjtJArAQt0zLdXRmXubilgDMQDsDioRSxv04BmB38Z2b7d+I9QfLnoZjY7Jc3J1mIBlwTQAaXtcgSQLg2l/kehJ5uRv4R4fjBgAzgRvTDUdEGrAudAAehlOr5Osr+wPR4OKkzsQ9OYo5AaiuN+Oi4bo6SQLg2t9dXaHpBcfjs3Yf7uMAzkMJgEgIRViad292v5OvVvgxb5VeNOc7HrcTuD/NQFI2GfdxHA0Pbk9S6T2BLazhkm0dTbwJwEbsjeDSvXER8GEsgRCR5jSK3fvmq1/3DRlUE+iHewJwD3F3377F8bjtwFON/nKSBGA7tmSiy2Y4RwO/dDguL7filgCMAU4F7kw3HBGJTF+sib7+Tr76dXjAuJrZTNy3yr01zUAy4Dp27kkSrICZtNn7EdwSANdBGnmZBXzF8dh3oQRApCz6YU30ne/opwBDAsYle3qXx7GzUosiGyc7HpdoWmPSBGAecHnCY8BG2Q/Dpt3FaCG2bfFBDsf+CfARrIVERIqhP3Awu1fyk4E3YQN8JW4DsC5YF4uxvSNiNQz3becTLW6XNAFwXTShFTgOuMPx+DzcAnzc4biRwAXE3cUhIua7wLnYvPqkO4FKPC7CfTnjm9MMJAMn4b4CYKIEoNG9AKqewDbfcOG6WlNefu5x7F+mFoWIZOkY4ABU+RfdFR7H+lzr8+BaV64j4dbGSROAXbhPnZjheFxeHsK6AVyciV1UREQkWwdig69dPE/8S7jPcDzuHhJuipU0AQBbOc/FW4h/2cpfOB7Xgm1MIiIi2boct7oL4GdpBpKB4djmRi4SL2yUZwLQD5u2ETOfN8flaPCQiEiWBgIf8Dg+9gTgTNz7/3NJAB6jwZ2GuuC6aENensTOz8W+wJ+lGIuIlMc24BngXmwK2sPYrm1FWNEwJn+Brb/iYh7wdIqxZMG1jlxPjltj34q9cZOWlbg33eTlI7idWwfF3Zv8UNzPWUUlRHGZsgtWCeQV4ybgWuAcum8dnAB8CPh9jnF1YJ/5oumDVeCu5/zB/ENOpAV4Bbdzy3Vr7E84BtmB+xKHeRmJbRHpen6xd3N0RQmAStFKzAnADmy64biEsZ2OTePK4+9XxATgbNzPdxPxr9h4LO7n91GXJ3S9G/dZRvE8j2PzsAG/Of2fTSkOESmeV7H96T8CrEp47F3YNMUvpx1USXzK49if4951nRefLvLfphZFg57BLVNx7WPP0/H4Zden5B+yF7UAqBStxNgC8Aw2RS0Nl2HTrrOKtWgtAKfjd76xtzyDdSG7nNsC1yf06Y93XUv5cGxDjZg9ADzocfy/phWIiBTCRuBiYGlKj/dD4DMpPVYZ+Pwt7sV9Fdu8TME9KbvF9Ul9EgCfboA/9Tg2L9/0OPZU4l/4SETS8y4SrsLWgH8Hfp3yYxbRTNw3xwG/a3lefGaQ5d78DzavfwNuTRYLA8SbVF9gCe5NTo8S/4yHKnUBqBStxNQFcKNjLI2YCGzJIOaidAG04Dcwcgl2LY/dAtzObx3u6wZ4VVA7cd/cZwpwmMdz52EX8B2P44/Ab7tKEYnfLvwGp/XmJWxGQbP6c+Aoj+O/ib1GMTsC927x24A21yf2vUN1XToXilE5Xgus9jj+i9jKVSJSTvfhMQirQddm/PixGgh8weP4V4DvpxRLlnzqQp862DsBuBXY7Hjsu4m/aeZ14Osex08C/i6dUEQkQnlsLfsssCiH54nNP+C3ydpXse6TmPXFvf9/IzDb58l9E4AtuK9AtD+27nHsrgbWehz/KSwREJHyubNkzxOLycAnPY5/BbgmpViydDawn+OxN2JLTDtLY5Caz97KPps65GUzfq0Ag4FvpxSLiMRleU7P82JOzxOL/wQGeRz/NeK/+we/OtCn7k1Nf2wkossIxh3APvmHnNgQaht3uJaLco+6cZoFoFK0EsMsgDwrmHenGHcHcc8CeDt+57Ycv+QhL+OxwfQu57gWm4nnJY0WgB24z1XtB7wvhRiy9jr+i3J8FxiVQiwiEgfn0deRP1dIo/GbfQXwL8DWFGLJ2vtwn8L3ayx58JLWPPXrPY79S2yXp9hdh99WkuOBb6UUi4iENwwYmtNzjc/peUL7Nsk3Uar3BH71UV5asLrPVSrnmFYCcC+w2PHYg7HtMmO3C7jS8zHeA1yQQiwiEocJOT3PxJyeJ6SLsK4OH/8ItKcQS9bOwwY6uliITT/1llYC0IHffMuPpxRH1n6L57QL4L8pxrgHEendKSV7nlDGAd/zfIxZuC9Ol7dPeBz736lFkaK9sSkJrgM3Yl8ZsOoNWP+SzyCV24lrmWANAlQpWolhEGAH+azDPgG7q00z7pgGAbZgFbfP+WzB/Y46b0fifp7bgTFpBZJmJbQWj12JgL9NK5CMPQ9c5fkYZ6IFgkTK4DSyb55/L8UYJ+XqH4AzPB/ji9i6/0XgU9f9GliTViBpOwv3zGYbfoM/8jQQW53LJ2PdARyXd+DdUAuAStFKLC0AHcAPHGNpxGhgfQYxx9ICcDx2LfQ5l0XAgLwDdzQeu4t3PdfT8w+5cS34VYxfzD9kZ6fj3yy3Atg378C7oARApWglpgSgDb8Na3pydQbxdhBHArAv/uur7KJY4yOuwv1cF1GAlqC/xv0EN2FjCYriGvw/iA8QPntVAqBStBJTAtABLCP9wb3vySjWDsInAP2Ae/A/jyKtsjoaW7/f9Vw/mH/IyQ3FfWXADvx2f8rbMGAp/m9i34UvfCkBUClaiS0B6ADuB0Y4xtXZqfgPNu6phE4AvoP/OTyPrdJaFF/C/VzXYsvKF4JPM8cGirViXhpdAe3AzLwDr6MEQKVoJcYEoAObo32wY2xVH8S/X7y3EjIBOAP/a+YuYEbOcfvwvfsvUvc4E/F7A38u/5C9fAP/D+TcvIOuowRApWgl1gSgAxu09wmSd+0dhO3vnsffL2QCcHcPcTVavpZ71H6+iPu5bqeAK0H+L34foCK1AgzA/8LSDozMO/AKJQAqRSsxJwDVshT4+15i7Ye1/n2P7O/660uoBGAv/O/+H8Y2oSsK37v/H+Ufsr/D8Xuhv5J/yF7eiA1i9HljH5N71EYJgErRShESgPqyGFup7r+B/8BukObiN17Kp4RKAI5PEGNXZSPur30oPi3E7YQfr+HsRtxPfCswKfeI/VyK35v7+PxDBpQAqBSvFC0BiK2EqlROSBBjV+XP8w/Zy2T85v3/Ksvgsl6O9nPYSbgYSMEGPmA7NF3rcfyzaQUiIhKhZzyOvRr4SVqB5ORLuHdXdACfTzGWIG7BPftpB96Sf8heXOe3PhQi2Aq1AKgUragFwK+EbFZ+pIe4uisPUKx+f4C34tcN/uv8Q07f0fj9EebmHrE/lxWu3hEkUqMEQKVoRQmAW9mEDaKb5Pj3S8OfkizmWFZMTcpnoaN24Ij8Q87GLPzetJfkH7K344DNNHZ+1weKsUoJgErRihKAnsta4F6sS/Lj2D4tBzj+zbLQ6CyxzcCxgWL08U78Xr8b8w85O0diCze4/jGWY6vuFc1J9N4S8D2gNVSAFUoAVIpWlABYeQm4E1sS90PY4jipbReboVbs2tfTua3ABg0WzXAsdtfXdBdwWO5RZ+zH+L3Ri7bwQ9VI4DPAAmpJ0DpsdOcpAeOqpwRApWilmRKAXdiyt7Ow6dGXYVOG01p2OKQZWF93dTpkGzAf+BfCrYviy3dhuP/JK9A8dxY6ANvNaKDj8W1Yn8jTqUWUv0HY+a8PHUgnhwJPhA5CJIGDgeccjpuHtUjGaCc2E2gBdq2sfl2ETYsuu1HYtvBFPtfDsEGOrq26W4FDsFbvzOXZ9LwMa6b6R8fjW7Hd907GsqQi2kqx39wi4m8HlrzMB5ZgFf38StkWMK7QYrsxSqoP8F386tVvkFPlH8JIbHCKT/PI5blHXX7qAlApWilCF8B6bPra97Elgc8BDiT79VckjA/j935ZTc7dOnkPPtuAbff7TY/H+AZwF5Y5i4iEtp7aXXz9Hf1S7MIu5TcJ+LLnY3weeM0/lMaFGH1+NfCXwJsdjx+Crac9E324RCQ/K9mzkn8aWBUyKAmuDzajwWem2nz8VpF1EiIBaAP+CtsS0nUQ4mlYV8D30gpKRAS7Pr3I7pX8AmyQ7KaAcUm8PgKc4XF8B/DX2CDQpuE7LXAzttGC+NMYAJWiFd8xADuwqXW3AFdhG3kdhc3UEWnUJPy2+u0Arss76BiMw/rOfP5wc4G+OcddRkoAVIpWXBOAEyrH6rohvlqx1RZ93sfrgLF5Bx6Lv8H/QvCZ3KMuHyUAKkUrRdsTXsrn8/i/jz+Ue9QR6YvbzlD1pQ1bclfcKQFQKVpRAiAhzcDqHp/38EMEnhIaej7qLmxZyx0ej9EX2yN6r1QiEhEptxbUBeJjb2wzI5+/4Xas7mtPJSJHoRMAgCeBf/N8jP2AH5Dv0sYiIjHrB0wB3g78M3ajNA+bzTA9YFxF1gf4ITDB83E+h80wEWwwxcP4Nwu6LjPc7NQFoFK0oi6Amv5YhX4JcCW2vfgjwBa6//sdGiTS4vsU/u/deVhyFlzobWir2oD3Yn8Y182CAL4EPAXMTiMoEZGIjMASn8lYhT+t8vUQ1KSfh5nYwD8f27G6Loo5/7EkAGCLbXwRWyrYVQvWzPUWbI6viEjRjGLPSn4ato+AujnDmAT8H/6J1meJaEfbmBIAsAU5zgWO83iMUcCvgOOxJjARKZ8Yxi/5OgDro58GTK2UaWhAc2wGAzdig/983A98zT+c9MSWALQB7wYew3YOdHUYtq7ye9IISkSiMxZ4JnQQDWjF7tyns3tlPwUYGjAuadz3sDrFx3qsbmvzDyc9sSUAAC8AVwA3eD7OXwC/Bn7jG5CIROdI4L7QQdQZgPXFT+1UDsEG6UkxvQP48xQe5wPYHhPSoGvxH235SO5RF5NmAagUrfyRMP3hw7AxRu/FuixvAp7Ff1GYvItmATTmMfz/1t/NPeoGxTygZDD2IfedrzoRWOEfTqkdiu12JlIk78EWZMnCaPbsm58C7J/R8+XtMGwNFune/sAyz8d4CjgG2OofTvpi7AKo2gK8C3gQGOLxOFNQAiBSRv+Fbdv7gMdjTGTPZvtpwBjv6KTopngevxmrw6Ks/CHuBABsusRlwM9wb60ow2hhEdnTEGAO8GngO3S/pHgLNhCv/k6+OihvePZhShPqAN6PTW+PVuwJANhgwKNwX+WvCCOFRcTNIOA/gH/CpmrNxxKBsVgFXy0+C4xJc3rO49ivAL9MK5Bm1wL8luSDL9TH1RgNAlRRaa6iQYCNeZrkf9s7KcjKjEVpHm/HBvwsTXjcVzKIRUREmsNXE/7+UuCd2E630StKAgDwKnAxsKHB37+B7EYIi4hI+V1P4035G7A6al124aSrSAkA2FS1mdhiQT25Dq0CKCIifjqwhYCu6+X3lgCnoenUuRgK/D3wKDbgpwNYg2VqM8KFVVgaA6Ci0lxFYwCSOxXbZ2Yt9jfcge1g+3f4TVUPJuaFgBrVSmTrKxeQFgISaS5aCMhf4eueonUBdKXQL4CIiBRS4eueMiQAIiIikpASABERkSakBEBERKQJKQEQERFpQkoAREREmpASABERkSakBEBERKQJKQEQERFpQkoAREREmpASAAFYHzoAEclVYXask+woARCAFcCLoYMQkVy8gH3mpckpARCAduAroYMQkVx8BdvNTppcGXYDlHS0ADcD54UOREQyczPwNpQACGoBkJp24BLg9tCBiEgmZgPvRJW/VPQNHYBEpQ34GTAIOA61EImUQTvwZeByYGfgWCQiusBLd04CvgdMCR2IiDhbAFwB3B86EImPugCkO/cC04E/BZ4JHIuIJPMC8EHgMFT5i4iHFmx8wGKs/1BFRSXOshS7429FpBfqApAkWoDTgEuBtwODw4YjIsB24E7geuA32FgekV4pARBXI7HugUuBEwLHItKMFmCV/g+AtYFjkQJSAiBpmAxcAJwPnAL0CxuOSCntAh4EbsHm8y8MG44UnRIASdtewNnAhcBZWEuBiLhZj63NcTNwG9q3Q1KkBECy1BebRngCMBM4Fdg7aEQicdsI/BGYg43efwjN3ZeMKAGQPPXBphbOAE4EjgEmBYxHJLSlWCV/H3A3MB8bzS+SOSUAEtoI4M3AUXVlKnpvSvmsBObVlYeA1UEjkqami6zEaAyWCBwKTKuUqcDQkEGJNGgzNkBvfuXrk1iFvyZkUCKdKQGQougDHIAlAm+qfJ0OHIQNPBTJ2zrgOeBpdq/wl6FmfCkAJQBSBqOwqYhdlUloyWtxtx5Y0kWZjzXpixSWEgApu4FYIrAfMKHytfP3w4NFJyG9BrwEvAis6PT9cmyA3rZg0YlkTAmACAyjlgyMA8bWfa3/fgzaQjt2u7CBdWuAVcArle9XVn6+ilpFvzlQjCJRUAIg0rg+WBJQTQz2xrofeitaDMnNBqwJvreyhlqlvwb1v4s0RAmASPb6YEnACGwDpcGVfw+plKHd/F9/YAC1TZdGVb4Orvy8FWu9AOvGyKt1Yhe2YA3AJmzzme3AlsrPqqvVban8fAfwOlahb6mU1yrHbunm/zagilwkU0oARMqrmkR0ZRi1LWPbsMq4K9XKW0REREREREREREREREREREREREREREREREREREREREREREREREREREREREREREQkBiOw9fjFzRDsbygiGdBmQCLZuRU4l9rueRsqX6tlU+Xremqb7myufL+hm5/B7hv0bAW2ZX8qXRoIDKp8X7/x0CigH7bLYfXn3f1sOLYx0fC6MpLa7oa/Bc7L/lREmk9r778iIp76YpXdqN5+0VN1a96qjVjy0Z1qEtFTK0VfrDKuqt+CWEQKTAmASHl0rpizTjhEpMBaQgcgIiIi+VMCICIi0oSUAIiIiDQhJQAiIiJNSAmAiIhIE1ICICIi0oSUAIiIiDQhJQAiIiJNSAmAiIhIE1ICICIi0oSUAIiIiDQhJQAiIiJNSAmAiIhIE1ICICIi0oSUAIiIiDQhJQAiIiJNSAmAiIhIE1ICINKz/YFRoYOQxEZhr52IdEMJgMjuWoETgauAR4AXgOkhAxIn04FlwPPAtcAFwICgEYlEpjV0ACIRmAScCcwEzgKGB41G0jQZuKJStgAPAHOAm4BFAeMSCU4JgDSjgdhd/sxKOSpsOJKTwdRe86uAJVgyMAeYDWwOF5pI/pQASLOYTO3ifzYwLGw4EoH61oGtwP1YMnALsCBgXCK5UAIgZTUIOAHd5UtjBtF968BtwKZwoYlkQwmAlEn9Xf45wNCw4UiB1bcObAPuo5YQzAsYl0hqlABIkQ0Gjscq/AuBqWHDkZIaSC2xBFgK3IklA7cDGwPFJeJFCYAUTfUu/wLgDDS1S/J3ILXWgTbgIWzcwBzgUaAjXGgijVMCILGr3uVfAFwEHBA2HJHdtGJjTU6o/PsV4A4sIbgT2BAoLpFeKQGQGE3GKvzzgZPQXb4Uxz7AeyplF/A4MAtLCNQ6IFFRAiAxGAKchlX45wD7hQ1HJBV9sdknRwH/CqwG7qaWEKwPF5qIEgAJZzpW4c8ETgb6hw1HJHNjgUsqpdo6MAdLCO5HrQOSMyUAkpehwKlYpX8uMDFsOCJB1bcOXAmsAeZiycAsYF2wyKRpKAGQLNXf5Z8C9Asbjki0xtB968ADQHu40KSslABImkZjffkzsYp/fNhwRAqpc+vAWuD31JYpXhkuNCkTJQDiowU4gtoiKTPQe0okbXtTax24BniM2qqEdwM7w4UmRaaLtSS1N9aXX12MZ9+w4Yg0lRZ2bx14FfgdlgzcCqwIF5oUjRIA6U1f4HBqFf5x2EVIRMIbTa11AGwXw+qqhGodkB4pAZCujMGa8y8AzgP2ChqNiDRqWqVcCWzGZhbcAvwWeClcWBIjJQACtbv86up7RwJ9gkYkIr6GYp/n8yv/XkJtEaJ7gB2B4pJIKAFoXvsAZ2EXhzOAkWHDEZGMTQY+WimvA3/AEoLfAC8GjEsCUQLQPHSXLyJVQ6jN3vkmu7cO3AtsDxea5EUJQLmNA87EKvwzgRFhwxGRSNW3DmzBFh+aBdwILAsYl2RICUC5tALHUlt9T3f5IpLUYPZsHaiuSngnsC1caJImJQDFdyDWhz8T69MfHjYcESmZycAVlbIV27hoDnAzsDBgXOJJCUDxDMLW1T8b2zr3jWHDaQqurShbU42iObn+DbVWRTYGUWsduAp4BpgN3IatO6D3fIEoASiGg7HK/mxsfv6goNE0n6GOx/0QuBhVRq7age87HjsszUCkW2+slI9hlf9cLBmYDTwbLiyR4hqMLcDzHeA5bJ9wlXDlvT2/XD06E1gawTkUrSzB7jJdvT+Cc2j28hx2DTsPu6aJSDemAB8Hbscy6dAfXpVa+XIPr1sj+gPvwwZQtUVwPrGWncAdWMLlu3X0VyM4H5Va2Ypd2z6OXetEmt452O5eSwn/AVXpvtzd3QvoYAzwQWxE9asRnFvo8mrlb3EFttFUWu6N4NxUui9LsWvfOd29gJI9TRELayhwOrUBfQeEDUe60YatnLgu5cftAxyCTd08Htvh7Y24jzmI3WZs0Ngj2Cp0DwKLsQohTXsDq7DFryQ+y6gNHLwLe19IAEoA4jKV2mC/k4CBYcOROh8F/jOn55pIbXDVIcAbsG2Xx2OJSKwVWxuwGngZWIn1AT9TKYvJb6vavwW+kdNzSe+2YS0y1cGBmjoYCSUA8RoMnIYlA2djlYCEsxSrkNsCx9GCJQHjgAlYl8LwTmVU3ff9sc95/V4Pg4EBnR53O7YCXNUG7M58B7CxUtbXfV8t1Qp/FfAKNnI/pFZs9PmkwHE0u+exCv824Hfs/t4SkYSqi3HcgF14Q/fhNWP5WK+vkoT2ccK/T5qxbMEGuV6JdWVJAagFoJiqiwFVuwu0GFA+NgNvBl4IHId07UDgKWyjG8neM9Sa9bUIUAEpASgHLQecn6ew8RmvhQ5EdjMM2+P+8NCBlJiWARaJ3AAsGfgPYAHhmwbLWGZjfesShwHYnWjo90UZywLsWnIGe44bEZHIjQMuxcYOVAd2qfiX+7ABeBLWXsDvCf9+KEt5HevL/xialixSKv2xmQVfAZ4k/MWm6GUxcFiiV0DSdDjWDx36fVD08iR2TTgNtWyJ9Og7wCeBIyj+GIqJwAeAX6LWAdeyE/gS2qApT4Owneh2Ev71L2LZgH3mP4BdA4qsD3Yt/iR2bRbJ1MPUPkgrgeuAd2JNkUXWis0s+BLwGDafO/SFqkhlKbZYkHahy84w7G+8lPCvd5FKO/aZ/hL2GS/6LrB7Ydfc67BrcPU8Hw4ZlDSH+gSgvrRhI2Q/DRxN8beA3RfbUe3n2BK4oS9iRSnrga8Dx1H890AMWrBlkr+BWqmSlHXYZ/f92Ge5yFqwa+qnsWtsdxtqKQGQzHWXAHQurwA/Bt5NupuchNAXOAH4AraO+y7CX+CKUFYAV2NbApd1ff8sDMWms16N/Q1Dv45FKLuwz+YXsM9qrMtFN2pv7Nr5Y+xa2sjfQAlAQkXvww7hYSwbTaId+3DOrpRqJVpUY7EL9DlY5TY6bDiF0AY8iq2Jfje2Ec6aoBHFYyy2IdLJ2BoLR1L8Zuo8vIptnzwb22p3ddhwvPTFrqvnVIpLK+ojwFtSjqvUlAAk55IAdKYProCtof848ETd1yXY4LYy6octaX0YNnDrsEoZHzKoAtGNRM+UACSkBCC5NBKAetUBOtXtMR+k2B/qvbEP89nYh3ts2HAKpw14EdtM5bnK1+crP1uJJYuxvj/6Utuo6ABsA6v6sj+6s09qNXaTcBt207A2bDhe+mItPdXtz48g3ZsFJQAJKQFILu0EoLP12EIc1Z20Vmb4XFlrwZpzqx/4Yyh+32Ro7Vif6CtY//hqrCthI7Y8cf3X6g5+YEnDxrrHeY3azn192X356OHUXqfqzoIjqO0wWP1+DJbgTcAq/bGo9cfXLuAhajcEjxJ+h0Uf+1Lb0fQM7P2UFSUACSkBSC7rBKCzJcAs4BZsrfMdOT532oYCpwLnA+dS/DnIImlYA8zFPuezsBH8RdUXW6DpAuxzfiT51TNKABJSApBc3glAvdeBP2AXid9gzcJFNh27SMzEBoBpFTJpBruwMR9zsM/y/dgo9qLaB+vuOx+7yx8ZKA4lAAkpAUguZALQWX3rwL3A9rDheBmCLUV6PtZcuH/YcERStRqb/VH9vK7v+dejFvIuvydKABKK4UUrmpgSgHpbgAewC8yNwLKw4XibTO0CcxLaiUyKpXqXX63wH6XYd/njsMG951e+jggbTpeUACSkBCC5WBOAzpZQa2K8E9gWNhwvg7HV4C4ALkK7lEmcXsFG6t9S+fpa2HC8tGIj9qtddLHc5fdECUBCsb+gMSpKAlBvK9bPOAe4GVgYNhxvk7GL0gVon3IJpw0bsX8L9tkq+l3+gdjnaSbWpz+851+PjhKAhJQAJMKr6xcAAAreSURBVFfEBKCzauvAHGyq0aaw4Xiptg7MBC4EpoYNR0puKdaiNgebn7+x51+P2kDgROyzMxM4Kmw43pQAJKQEILkyJAD16lsH5gDzwobjrdo6MBNbe0Br8IuPbcB9lPPzcTbl2r1SCUBCSgCSK1sC0FmZ7nAGYRujlOUOR/JRphay+s/ABcC0sOFkSglAQkoAkit7AlCvbH2c9Xc/RezjlGzUt4LdAiwIG463+jEyM7Gm/magBCAhJQDJNVMC0NkqrHWgjKOc1TrQXMo6S+ZCYFLQaMJRApCQEoDkmjkBqFe21oFJ2PzmmcQ7z1ncVdfJmAPcBCwKG443zYTZkxKAhJQAJKcEoGv1c6DvBDaEDcdLEedAy57q7/LvoPgrZR6HVfhvQytldkUJQEK6qCWnBKB3ZVsFLZa1zqVnZdsro341TO2V0TslAAkpAUhOCUByWgddslLW3TLPAfYLG07hKAFISBeu5JQA+Om8E9oDFHu/87HAKdQSgiz3Oxe7y/89VuHPBpaHDcdb/Y6YpwD9woZTaEoAElICkJwSgHStxS7o1SlYK8OG46XaOlAdnHUc0BI0onJYQG2wadHv8kdju17OBM4DJoQNp1SUACSkBCA5JQDZaQceo7YIy1xstkFRjQFmUFumeFzQaIpjHXAX9h64FVgRNhwvLcAR1Naf0F1+dpQAJKQEIDklAPl5Ffgdte6Cl8OG46VzRTADm20geyZ+dwM7g0bkZ2+sL38m1rw/Pmw4TUMJQEJKAJJTAhBOfVNw0SuJ+qbgZqwk6rt+ypTcqesnHCUACSkBSE4JQBzqm4l/C7wUNhwvzdBMrO4dyZoSgISUACSnBCBOZRoothdwOsUfKLYGq+jnADdjS0kXlQZ4xk8JQEJKAJJTAhC/Mk8Vi3lBGE3xlJCUACSkBCA5JQDFU79YzL0Uf0nY04hnsRgt8iSxUAKQkN7cySkBKLbqpjCzgBuBZWHD8Zb3crFa5llipQQgISUAySkBKJeybhhzEXBASo+rjZ6kCJQAJKQ3fnJKAMpLW8YabfUsRaQEICElAMkpAWge1daBOdhgws1hw/EyGDgeqwQvAqZ0+v8XsLv8OZWvr+UZXMoGAidSm1Z5VNhwJCdKABJSApCcEoDmtAWb0jYbuA14Lmg0/qYAZ1e+v43it3YchJ3POdj8/MFBo5EQlAAkpAQgOSUAAru3DtwGbAobTtMZBJyA7vKlRglAQkoAklMCIJ1tA+6jlhDMCxtOaVXHNMzE7vSHhg1HIqMEICFtRiLibyC1iglgKTZafg5wO7AxUFxFVz9u4UJgathwRMpFLQDJqQVAkijbiPqsuc5cEFELQEJqARDJVivWV31C5d9lmlOfhupdftprF4hIL5QAiORrH+A9lVK2VfUaVb964UnoLl8kCHUBJKcuAMlKmdbVrxfb/gVSTuoCSEgtACLxGAtcUimdd9a7n2K1DhRlB0ORpqUWgOTUAiAhrMEWIppVKeuCRrOnocCpWKV/LjAxbDjShNQCkJBaAESKYQzdtw48ALQHiKn+Lv8UoF+AGETEkVoAklMLgMRmLfB7LCG4BViZ0fOMxvryZ2IV//iMnkfEhVoAElICkNzh1AYzHQP0DRuOyG7asQthdc+Ch7EWAxd9sQtqdY39o4GWFGIUScsubJ2N2Vhr2ONhwykWJQB+9sIWKzm7UsaFDUdkDytxv1N/Gdg3xVhE0rAKS25vw9bSiG08TGEoAUiXRj5LbLZjSxW72Ibm6Et4RZ8REy0lANnR3GeJgRIAKaKyrokRFSUA+dHqZxKCEgApgmZdFTMoJQBhaP1zyYsSAIlV/b4YdwCvhQ2n+SgBiIN2QJOsKAGQWGhnzMgoAYiP9kCXNCkBkJCWYiP15wC3AxvDhiP1lADEr9o6MBMbTDg0bDhSMEoAJE/bgPuwCn8OMC9sONITJQDFMgjbV76aEBwVNhwpACUAkrUl1Cr824BNYcORRikBKLb61oGzgWFhw5EIKQGQtG3F5uJXl55eEDYccaUEoDxagWOpLUSk1gEBJQCSjupd/iysT39b2HAkDUoAymsScCaWDJwJjAgajYSiBEBcbMF2mZwD3AQsChuOZEEJQHPo3DpwJHrtm4USAGlU/V3+Hdh7R0pMlUBz2gc4C0sIzgBGhg1HMqQEQLrzOvAHrMK/EVgWNhzJmxIA6YttcVxdplitA+WiBEDqLaG23O49wI6w4UhIutBLZ2OBU6glBKPChiOelAA0t9eB32MV/mxgedhwJCZKAKQn1daB6jLFxwEtQSOSpJQANJ8F1Jbb1V2+dEsJgCQxBphBbZnicUGjkUYoASi/dcBdWIV/K7AibDhSFEoAxFULcAS1hYhmYLMNJC5KAMqnHXiM2up7dwM7g0YkhaQEQNIyGjgNSwbOB8aHDUcqlACUw6vA76hN03s5bDhSBkoAJAudWwdOAfoFjah5KQEops53+XOx7XRFUqMEQPKwF3A6lgycB0wIG05TUQJQHGuwin4OcDOwKmg0UnpKACSE6dRWJTwZ6B82nFJTAhCvXcDj1Jr1H8Du/EVyoQRAQhuCjR04HzgH2C9sOKWjBCAuq7FBe9XFeNaHDUeamRIAic1kaosQqXXAnxKAsKp3+dUK/1GgI2hEIhVKACRmQ7DFhy4ALgIOCBtOISkByN8r2GY6t2Bb524IG45I15QASJFMprYq4RmocmqEEoDstQEPUVt9T3f5UghKAKSoBgPHYwnBRcCUsOFESwlANl7A7vLnVL6+FjQaEQdKAKQs6lsHZuJe6ZWNEoB0dL7Lnxc2HBF/SgCkjAYBJ1BLCKaFDScoJQDullBbiOc2YFPYcETSpQRAmkG1dWAmcDYwLGw4uVIC0LitwP3UKn3d5UupKQGQZjMQOJFaQnBU2HAypwSgZ/V3+bOBzWHDEcmPEgBpdgdiMwpmAmcBw8OGkzolALvbgq24V11ud2HYcETCUQIgUtMKHEttmeIjKf5nRAlA7S5/FjZif3vYcETiUPSLm0iW9sFaBc4HzgRGhA3HSTMmANW7/FnAjcCysOGIxEkJgEhj+gKHU1umuCitA82SACyhttzuveguX0REMjIWuAS4HliHrfwWY9nmcY7bIoi/u7IZq+yvQBtIiTgpwh2MSOyqrQPVdQeOJ57PVplaABZQW4jnHmBH2HBERER2N4Za68CrqAXAtWyidpc/0eM8RKQLsdyliJRV59aB44CWHJ+/aC0A9Xf5dwM7c35+ERGRTOyNtQ5cC7yMWgDWAjdgd/njPWIVkYTUAiASTgtwBLVVCU8B+qX8HLG1ALQDj1FbfW8uttGOiIhI0xpNrXXgJcrTArCG2l3+vh7xiIiINIXpwJXAndiI96IkAG3AI8BV2L4LeY55EBERKZWh2CDCa4HlxJcArMbu8i8FRnk8p4iIiPRgMvAxrHVgO/knANW7/M9iOypqPJGIiEjOhmCDCL+FrXufVQKwClvb4BJgpMfjioiISAbqWwde83ic19FdvoiISCENCXSsiIiIiIiIiIiIiIiIiIiIiIiIiIiIiIiIiIiIiIiIiIiIiIiIiIiIiIiIiIiIiIiIiIiIiIiIiIiIiIiIiIiIiIiIiIiIiIiIiIiIiIiIiIiIiIiIiIiIiIiIiIiIiIiIiIiIiIiIiIiIiIiIiIiIiIiIiIiIiIiIiIiIiIiIiIiIiIiIiIiIiIiIiIiIiIiIROL/AX49bqE0IaUiAAAAAElFTkSuQmCC;" vertex="1" parent="WIyWlLk6GJQsqaUBKTNV-1">
          <mxGeometry x="317" y="420" width="66" height="66" as="geometry" />
        </mxCell>
        <mxCell id="ASZsgvlguslv8uvF_fy1-8" value="" style="edgeStyle=orthogonalEdgeStyle;rounded=0;orthogonalLoop=1;jettySize=auto;html=1;" edge="1" parent="WIyWlLk6GJQsqaUBKTNV-1" source="ASZsgvlguslv8uvF_fy1-4" target="ASZsgvlguslv8uvF_fy1-7">
          <mxGeometry relative="1" as="geometry" />
        </mxCell>
        <mxCell id="ASZsgvlguslv8uvF_fy1-15" style="edgeStyle=orthogonalEdgeStyle;rounded=0;orthogonalLoop=1;jettySize=auto;html=1;exitX=0.25;exitY=0;exitDx=0;exitDy=0;entryX=1;entryY=0.75;entryDx=0;entryDy=0;" edge="1" parent="WIyWlLk6GJQsqaUBKTNV-1" source="ASZsgvlguslv8uvF_fy1-4" target="ASZsgvlguslv8uvF_fy1-3">
          <mxGeometry relative="1" as="geometry" />
        </mxCell>
        <mxCell id="ASZsgvlguslv8uvF_fy1-4" value="Fetch LiDAR Detections" style="rounded=1;whiteSpace=wrap;html=1;fontSize=12;glass=0;strokeWidth=1;shadow=0;" vertex="1" parent="WIyWlLk6GJQsqaUBKTNV-1">
          <mxGeometry x="413.5" y="546.5" width="70" height="93" as="geometry" />
        </mxCell>
        <mxCell id="ASZsgvlguslv8uvF_fy1-10" value="" style="edgeStyle=orthogonalEdgeStyle;rounded=0;orthogonalLoop=1;jettySize=auto;html=1;" edge="1" parent="WIyWlLk6GJQsqaUBKTNV-1" source="ASZsgvlguslv8uvF_fy1-7" target="ASZsgvlguslv8uvF_fy1-9">
          <mxGeometry relative="1" as="geometry" />
        </mxCell>
        <mxCell id="ASZsgvlguslv8uvF_fy1-7" value="Trajectory Predictions" style="rounded=1;whiteSpace=wrap;html=1;fontSize=12;glass=0;strokeWidth=1;shadow=0;" vertex="1" parent="WIyWlLk6GJQsqaUBKTNV-1">
          <mxGeometry x="520" y="546.5" width="70" height="93" as="geometry" />
        </mxCell>
        <mxCell id="ASZsgvlguslv8uvF_fy1-12" value="" style="edgeStyle=orthogonalEdgeStyle;rounded=0;orthogonalLoop=1;jettySize=auto;html=1;" edge="1" parent="WIyWlLk6GJQsqaUBKTNV-1" source="ASZsgvlguslv8uvF_fy1-9" target="ASZsgvlguslv8uvF_fy1-11">
          <mxGeometry relative="1" as="geometry" />
        </mxCell>
        <mxCell id="ASZsgvlguslv8uvF_fy1-9" value="Collision Risk Assesment" style="rounded=1;whiteSpace=wrap;html=1;fontSize=12;glass=0;strokeWidth=1;shadow=0;" vertex="1" parent="WIyWlLk6GJQsqaUBKTNV-1">
          <mxGeometry x="620" y="546.5" width="70" height="93" as="geometry" />
        </mxCell>
        <mxCell id="ASZsgvlguslv8uvF_fy1-14" value="" style="edgeStyle=orthogonalEdgeStyle;rounded=0;orthogonalLoop=1;jettySize=auto;html=1;entryX=0;entryY=0.5;entryDx=0;entryDy=0;" edge="1" parent="WIyWlLk6GJQsqaUBKTNV-1" source="ASZsgvlguslv8uvF_fy1-11" target="ASZsgvlguslv8uvF_fy1-26">
          <mxGeometry relative="1" as="geometry">
            <mxPoint x="827" y="593" as="targetPoint" />
          </mxGeometry>
        </mxCell>
        <mxCell id="ASZsgvlguslv8uvF_fy1-30" style="edgeStyle=orthogonalEdgeStyle;rounded=0;orthogonalLoop=1;jettySize=auto;html=1;exitX=1;exitY=0.5;exitDx=0;exitDy=0;entryX=0;entryY=0.5;entryDx=0;entryDy=0;" edge="1" parent="WIyWlLk6GJQsqaUBKTNV-1" source="ASZsgvlguslv8uvF_fy1-11" target="ASZsgvlguslv8uvF_fy1-28">
          <mxGeometry relative="1" as="geometry" />
        </mxCell>
        <mxCell id="ASZsgvlguslv8uvF_fy1-11" value="Severity Ranking" style="rounded=1;whiteSpace=wrap;html=1;fontSize=12;glass=0;strokeWidth=1;shadow=0;" vertex="1" parent="WIyWlLk6GJQsqaUBKTNV-1">
          <mxGeometry x="720" y="546.5" width="70" height="93" as="geometry" />
        </mxCell>
        <mxCell id="ASZsgvlguslv8uvF_fy1-17" value="Send Safety Message to Vehicle" style="edgeStyle=orthogonalEdgeStyle;rounded=0;orthogonalLoop=1;jettySize=auto;html=1;entryX=0.467;entryY=1.022;entryDx=0;entryDy=0;entryPerimeter=0;exitX=0.5;exitY=1;exitDx=0;exitDy=0;" edge="1" parent="WIyWlLk6GJQsqaUBKTNV-1" source="ASZsgvlguslv8uvF_fy1-26" target="ASZsgvlguslv8uvF_fy1-0">
          <mxGeometry x="0.6722" y="10" relative="1" as="geometry">
            <mxPoint x="950" y="730" as="sourcePoint" />
            <mxPoint x="1" as="offset" />
          </mxGeometry>
        </mxCell>
        <mxCell id="ASZsgvlguslv8uvF_fy1-31" value="" style="shape=image;verticalLabelPosition=bottom;labelBackgroundColor=default;verticalAlign=top;aspect=fixed;imageAspect=0;image=data:image/png,iVBORw0KGgoAAAANSUhEUgAAAgAAAAIACAYAAAD0eNT6AAAABHNCSVQICAgIfAhkiAAAAAlwSFlzAAAN1wAADdcBQiibeAAAABl0RVh0U29mdHdhcmUAd3d3Lmlua3NjYXBlLm9yZ5vuPBoAACAASURBVHic7J133F9Fsf/fk4QkJJAQCIQiIaGFIr0XFTCgeJXelXJpUq4iKipNQFFEFOEiUpUiNQgI3J9EitRILyKI1CAQIIWUh/SnzO+P3ZAQUp6yc853z5n36/W80HvxM/v9fs/uzJndnRFVxXGcxkdEBOgPDJzvb7n5/vtSQC+gZzv+CTAbmNWOf04FJszz9+F8/30CMEV9UXGcLBCfq47TGIhIf2DIQv5WBpYFepQwtI7QAkwE3gPeWtCfqk4pZWSO43wCDwAcp0BEpA+wPrBh/OdQ5jr5ZUobWLFMZm5AMBp4CXgBeElVp5c3LMepFx4AOI4RIjKE4Og3BDaK/1wT6FbeqBqaNuB1QjDwj/jPF1T1rTIH5ThVxQMAx0mAiHwG2C7+bQpsAPQrdVDVoQn4J/AsMAoYparvljskx8kfDwAcp4OISDeCg9+euU5/cKmDqh9vE4MB4FHgn6raVu6QHCcvPABwnMUgIr0ITn6Ow98af7tvNJqAx5kbEIxS1VnlDslxGhsPABxnAYjIUGDX+LcT0KfcETkdZDrwN+Bu4G5VHV3yeByn4fAAwHH4+C3/C8x1+sPKHZGTmFeIwQDwkGcHHMcDAKfGiMgqwB4Eh78j/pZfF6YDDxCCgT+r6piSx+M4peABgFMrRGQlYB9gP8J+vpQ7IqdklHBuYATwJ1V9v+TxOE5heADgVB4RWYG5Tv9z+D18Z8G0AY8ANwO3quq4ksfjOKZ4AOBUEhEZCOwF7E/Y2+9e7oiczGgFHiIEA7ep6oSSx+M4yfEAwKkM8X7+l4Gjgf+i8evmO3nQAvw/4HJgpNcbcKqCBwBO9sQqfEfEv1VLHo5Tbd4Bfg/83qsROrnjAYCTJSLSHfgK4W1/VzzF7xRLK+EWweXAX1S1teTxOE6H8QDAyQoRGQwcCRwOrFLycBwHYAzwB+BKVX277ME4TnvxAMDJAhHZEvg+4WCfv+07jUgrcBvwK1V9suzBOM7i8ADAaVhERIDdgO8Rru85Ti48AvwauFN9kXUaFA8AnIZDRHoDhwLfBdYueTiO0xVeBc4HrlHVmWUPxnHmxQMAp2EQkeWB44DjgeVLHk5utAITgQnxrwmYHf9mzffPef8zQM/412u+f877n/sBA+Pfsvg2TEcZD1wM/E5Vx5c9GMcBDwCcBiCW5z2ZcLhvyZKH04i8T2hm8wrwFsHBj2eus58ATCrqfnqstzCAuQHBQELANhAYQmikNAxYqYjxZMYM4ErgHC877JSNBwBOacRqfT8kvPHX3fFPB15jrqP/+E9VPypzYJ1FRJZmbjAw799aeOOlGYSMwLleZdApCw8AnMIRkQGEg30nAEuVPJwiUUIhmU85eeCduhwWi4c7V2XBwcGq1KtB01TgQuDXqjqp7ME49cIDAKcw4hvhiYTDff1LHo41rcDThLazzxGc/KuqOqPUUTU4IrIk4eDnMGATQpvmzan+mYMphMOCv8k14+PkhwcAjjki0gf4FnASsFzJw7FCgX8Cf4t/D6lqU7lDqgYi0o/Q0Gmn+LcB1c0SfAicB1ykqtPLHoxTbTwAcMyIqd5DgHOo5oGw14D7CQ7/Ad/LLYZ4dmRHQjDwRcKZgqrxPuFg7LV12RpyiscDAMcEEdmGsLe5RdljScg7zH3D/5s3g2kMYjOoneb5q1JDqKeAE1T1sbIH4lQPDwCcpIjIqsC5wIFljyUB4wl7+PcTHP7rJY/HaQcisiZzswM7Uo2aEjcCP1TVd8oeiFMdPABwkhD3+U8CfkDeV7zeAq4DbgH+6enXvInbUBsA+wLfINQpyJXpwC+B8/x8gJMCDwCcLiMiBxLe+nNNvU4hOPw/Ao+4068mMRj4HHAwISDI9SbKO4RswI1lD8TJGw8AnE4jIusAVwDblz2WTtAC/BW4ltCwxeu014jYb2I3wiHVLwE9yh1Rp3gUOEpV/132QJw88QDA6TAisgTwI+BUQq34nHiW4PRvVNVxZQ/GKR8RWYFwZuUQYNOSh9NRZgE/A36hqs1lD8bJCw8AnA4hIlsRapl/tuyxdIB3gesJV6r+VfZgnMZFRNYjBAJfBz5T8nA6wovAkar6RNkDcfLBAwCnXYhIX8KbxreAbiUPpz1MBW4l7Os/UFSjHKcaxIZHOxLOC+xNHiWr24CLgFNVdVrZg3EaHw8AnMUiIl8GLgVWK3ss7eA+4Grgdj8p7aQg3nDZEzgMGF7uaNrFf4BjVHVk2QNxGhsPAJyFIiLLEor5fKPssSwGBW4Dfqaqz5U9GKe6iMgmhLMve9H45YivIxQRmlj2QJzGxAMAZ4GIyHaE4iONfLWvlTDGn6vqy2UPxqkPIrIucArh8GAjNyp6BzhQVUeVPRCn8chhL9cpEAn8EHiQxnX+swkHEYep6sHu/J2iUdWXVfVgQtfCKwnPZCOyKvCgiPww1kFwnI/xDIDzMbHJyrXArmWPZSHMICy253lJVKeRiCWwTwKOBJYseTgL427gEG9a5czBAwAHABH5HCGdvkrZY1kAU4FLgF+r6tiyB+M4C0NEBgHfA46lMW8OjCFsCTxS9kCc8vEAoObEtODJwE9ovL3MycD/Ahf6QSYnJ+IB2hOAbwPLlDyc+WkFfgyc42Wv640HADVGRJYnnBTepeyxzMd44DfAxaraVPZgHKeziEg/4HjgRBqvK+E9wDdUdXzZA3HKwQOAmiIiXyCk/Fcqeyzz8B5wHnC53+F3qkSsJXA04ZzAyiUPZ17eJ2wJPFT2QJzi8QCgZsQKZ6cCZ9A4Kf9ZBMf/c1WdUfZgHMcKEVmScH3wJBqnj0YrcBahjoZXzKwRHgDUiHhA6Toaq5rZvcD/qOqrZQ/EcYpCRNYGfgvsXPZY5uE+wpaAH7StCV4HoCaIyE7A8zSO8x8D7K+qu7jzd+qGqr6qqrsA+xPmQiMwHHg+rhVODfAAoOKISDcROZPwpr1iycMBaAHOB9ZV1RFlD8ZxyiTOgXUJc6Kl5OFAWCPuFZEz43ahU2F8C6DCiMiKwA2ErmaNwCjgWFX9Z9kDcZxGQ0Q2INS72K7ssUQeAA5S1Q/KHohjgwcAFUVENiZU/mqEt/7xwA+Aa/zeseMsnFiX41DglzTGtcEPgF1V9fmyB+Kkx1M8FUREdgAeonzn3wZcRqjZf7U7f8dZNBq4mtBj4DLCHCqTFYGH4priVAzPAFQMEdmLkPYv+4rRM8BxqvpkyeNwnGwRkS2B3wGblTyUWYTtgNtKHoeTEM8AVAgR+SZwC+U6/8nA/wBbuvN3nK4R59CWhDk1ucSh9AJuiWuMUxE8AKgIIvJj4FLK/U2vB9ZR1Yu9oIjjpEFV21T1YmAdwhwri27ApXGtcSqAbwFkTryq87+EeuNlMRU4RlXLXJwcpxaIyNcJwX6Z3QYvBr7tgX7eeACQMSLSE/gjsF+Jw3gB2E9VXylxDI5TK0RkGDAC2LDEYYwADlbV2SWOwekCvgWQKSKyNPAXynX+lwNbufN3nGKJc24rwhwsi/2Av8S1yMkQzwBkiIisQHD+ZZ0M/gj4pqreWJJ9x3EiInIg4cpgWY74GeArqjquJPtOJ/EAIDNEZCihj/eaJQ3hH4SUv9fvd5wGITYXGgFsVNIQXgd2UdXRJdl3OoFvAWSEiGxIKKdblvO/FNjanb/jNBZxTm5NmKNlsCYwKq5RTiZ4BiATROTzwJ1A/xLMfwQcpao3l2DbcZwOICL7A1dQzpbAFGA3VX24BNtOB/EAIANEZA/gRqB3CeafI6T8Xy/BtuM4nUBE1iRsCWxSgvmZwIGq+ucSbDsdwLcAGhwROQr4E+U4/98B27jzd5y8iHN2G8IcLprewJ/i2uU0MJ4BaGBE5GjC6d6iaQKOVNVbSrDtOE5CRGRf4EqgXwnmv6mqZV5VdBaBBwANiojsSajr371g088SUv5vFGzXcRwjRGQNwpbApgWbbgX2VdXbC7brtAMPABqQeODvrxSf9r8TOEBVZxRs13EcY0RkSeAmYLeCTc8EvuQHAxsPPwPQYMRrNHdSvPP/A7CXO3/HqSZxbu9FmOtF0hu4068INh4eADQQIjIEGEnxV/3OUdUjVLW1YLuO4xSIqraq6hHAOQWb7g+MjGuc0yD4FkCDICLLE4r8rFWgWQVOVNULC7TpOE4DICInAL8BpECzrwHbqer4Am06C8EDgAZARJYCHgA2L9BsM3CYqt5QoE3HcRoIETkIuBpYokCzTwM7qurUAm06C8ADgJKJLX3/D9i5QLPTCPv99xRo03GcBkREdgFuA/oWaPZe4KveSrhc/AxAiYiIANdQrPOfAOzkzt9xHIC4FuxEWBuKYmfgmrgGOiXhAUC5XAAcUKC9/wDbq+qTBdp0HKfBiWvC9oQ1oigOIKyBTkl4AFASInIK8O0CTb5IOHzzSoE2HcfJhLg2bEdYK4ri23EtdErAzwCUgIgcQSjNWRSjgK+p6qQCbTqOkyEiMgC4ixAMFMWRqvr7Au05eABQOCKyG+HATVElfu8C9vcCP47jtJdYNfBm4GsFmWwlHEy+syB7Dr4FUCgisj2hFGdRzv8qYE93/o7jdIS4ZuxJWEOKoDtwU1wjnYLwAKAgROSzhLfxJQsyeb6qHu7V/RzH6QyxauDhwPkFmVwSuCuulU4B+BZAAYjIIOAZYJWCTP4hlvt0HMfpMiLye+DwgsyNATZT1bEF2astngEwRkS6AddRnPO/Ezi6IFuO49SDowlrSxGsAlwX107HEP+C7TkNGF6QrUcJ7Xw97e84TjLimnIAYY0pguGEtdMxxLcADBGRHYH7KCbQehH4nKpOLsCWkzki0gNYOv7Xj1S1pczxOHkgIssAjwBF7NO3AcNV9YECbNUSDwCMiPv+zwMrFmDuP8C2qvpeAbacBiGWUV0FWAdYg9Bydel5/paa77/P+9d7PrmZwEcL+Zs633+fArwB/BsYo76I1AoRWRn4O7BaAeY+ADb28wA2eABgQNy7ugf4YgHmJhAq/L1agC2nBESkD7A2MIzg7IfN81dkA5cFMQ14ZZ6/f8d/vqqq08scmGOHiKxNKDA2sABz9wO7qGpbAbZqhQcABojIj4GzCjA1ldDY56kCbDnGxDf6jYBtmevo1wFWpdie7SlQ4B3mBgT/Jrw1/sMzBtVARLYA/kbINFlzhqr+pAA7tcIDgMQUuO/fTGin6V39MkZE1gV2JHRj2wFYrtQB2fMh8CDwAPA3VX253OE4XSG2Ev4/YAljU34ewAAPABJS4L6/Al9X1RuN7TiJEZGhBGe/E8Hxr1TuiErnfWIwQAgIRpc8HqeDiMiBwPXYZ6n8PEBiPABIRMH7/t9R1QsLsON0ERFZibkOfydgSKkDanzeIgYDhIDg/XKH47QHETmBYlr7+nmAhHgAkAgROQM4swBT56iqt89sYESkL7A3cAjhLd/rbXSONkJ24FrgNlWdWvJ4nEUgIj8HTi7A1JmqWsQZq8rjAUACRGQn4F7sF/rfq+qRxjacThAzQDsSnP7elH86v2pMI3TRvJaQGfA3wAZERK4ErMuQtwE7q+rfjO1UHg8AukiB+/53AHt7lb/GQkTWITj9g4HPlDycujCGUF77WlX9V9mDceYiIt2BW4HdjU35eYAEeADQBQrc93+aUOVvprEdpx2IyHLAgQTHv0XJw6k7zxCyAjeq6viyB+OAiPQmVAvc3NiUnwfoIh4AdIGC9v2nAJuq6pvGdpzFICLbAd8Dvor9tSenY7QAfyG0wX6o7MHUHRFZHXiWUJ3SEj8P0AU8AOgkBe7776OqtxrbcBZBvOt8KvD5ssfitItRwM9U9e6yB1JnRGRv4E/GZvw8QBfwAKATFLjv/1tV/ZaxDWcBxKp8uwOn4Gn+XHkW+Blwu1cfLAcRuQj4H2Mzfh6gk3gA0AlE5DZgT2MzzxIa/MwytuPMQzzEtD/B8a9f8nCcNPwLOIdwTsAP0RaIiPQilIDe1NjU7aq6l7GNyuEBQAcRkT0J15EsaSLs+79hbMeJiEhP4FDgh4TOek71eBP4BXCNqs4uezB1QUTWILzQ9DM2tZeq3m5so1J4ANABRKQ/8DL25Vv3U9VbjG04fNxp7yjg+/g1vrowBjgPuMI7FhaDiOwLjDA28z6wrqpOMbZTGbxCWcf4JfbO/3fu/IshLkqvEkqYuvOvD6sQfvNX4zPgGBPXtN8Zm1mJsEY77cQzAO1ERD5P6GJm2fDiOWAb3/e3RUTWBC4Gdil7LE5DcA9wvKq+XvZAqkw8D/AYsImhGQV2UNWHDW1UBg8A2kF8cP9B6M9uxUeEfX9fhIyIBUpOJuzz9yp5OE5jMQs4l9BrwwtuGRGD72eBpQ3NvAJs5C9Si8e3ANrH6dg6f4Cj3PnbISJfBl4Efow7f+fT9CI8Gy/GZ8UxIK5xRxmbGUZYs53F4BmAxSAiGxDKjVpWfrtUVY811K8tIvIZwn7v3mWPpSBmE26RfARMbcc/AZYivJEt7p/9gJ4FfY6yuZXQdvvdsgdSRUTkEuAYQxPNwGaq+k9DG9njAcAiiMVgHgO2MjTzD2BrTzumRUR6AN8BziA4sKrxLiHV+Qrw73n+89tWRW/ifBhMeMMaBqwzz3+u4iHKqcBZwAWq2lL2YKpE3I57HNjI0MwThDNV7uQWggcAi0BE/hv4g6GJj4DNVfVVQxu1Q0S2AS4HPlv2WBLwHvAowcnPcfSvqurURf6vCkZElgLWZm5gsA6wPbBymeNKxIvA0ar6WNkDqRIisjah0ZnleYDDVfUqQ/2s8QBgIYjI0oQrYpblfg9S1RsN9WtFfEP9IfBToEfJw+ksHwIPAH8j9L1/peTxdAkRGQbsFP92BJYrd0SdpoWwr3yuv1GmQ0QOBG4wNPEBsLaqfmRoI1s8AFgIIvILgjOx4lpVPdRQv1aIyPKEtrC5HeBqAh4mOnzghao6mBigbcjcgODz2FeHS81I4BBvPZwOEbmG0FrbinNV9UeG+tniAcACiK0s/4XdafFJwDBfRNIQazTcSD7p5lcIbz33AE/XdX85ntPYnFCP4SDsb9qk4j3gQL9rnoYYvL8CDDAyMQtYz1uqfxoPABaAiNwO7GFo4lhVvdRQvxaISDfCvf6zgO4lD2dxTARuJtShf6LswTQiIrIVoR/D/sCyJQ9ncbQSDpieo6ptZQ8md0TkGOASQxN/VlXrBm7Z4QHAfIjIF4H7DE08RTj174tGFxCRFYDrgJ3LHssiaAbuBq4B/s8b0LSP2Jjpq4RgYFdsr+B2lXuBb6jquLIHkjMxmH8c29bbw1X1fkP97PAAYB5iK9jngA2MTLQBW6rqM0b6tUBEdgSux74vQ2d5huD0b1TVCWUPJmdEZCBwICEY2Kzk4SyM94Gvq+oDZQ8kZ0RkM+BJ7ArU/RPYxFtCz8UrAX6So7Fz/hAK/rjz7yQi0k1EziBkaBrN+TcDvwc+q6qbq+pF7vy7jqpOiN/l5oRrnb8nfNeNxErAfSJyRnyTdTpBXBstt0Y3IKzxTsQzABERWQZ4HbtrSuMIB/8mG+lXmngt81YaL+U/E7gSOE9V3y57MHVARAYDJwFHAr1LHs783Avs7dfOOkdch18BVjAy8SGwpq/DAY9W5/JdbO8of98fus4R9/sforGc/1TgV8BQVf2WO//iUNW3VfVbwFDCb9BIRZF2Bh6Kz6zTQeIa+X1DE8sR1noHzwAAICLLAaOxq0j1sKp+wUi70sQrmX8F1ix7LJHJwEWE8rATyx6MAyKyLKHs87eAZUoezhxeB77kV886h4g8RKgTYcFHhMD9QyP9bPAMQOAk7Jx/C3CckXalEZGNgFE0hvMfD5wCrKaqP3bn3zio6kRV/TGwGuE3aoT6GmsCo+Iz7HSc4whrpwVLE9b82lP7DEBM1b0J9DUycZ6q/sBIu7KIyBeAO4D+JQ+lmdBN8CeNVn/fWTCxL8GPCVmBsq8QTgF2V9WHSh5HdojIL7Fz1NOA1et+fdMzAPAj7Jz/u4QiNU4HEJE9CSVXy3b+DxGuDf3AnX8+qOrUGHRvQvgNy6Q/MDI+007HOIuwhlrQl7D215paBwAisjJwrKGJ76jqNEP9yiEiRwG3UO7p7rHAwaq6g6q+VOI4nC6gqi+p6g7AwYTftCx6A7fEZ9tpJ3Ht/I6hiWOjD6gttQ4ACPuFVo5mpKreaqRdSUTkVEIb37LK+rYSDvgNU9XrShqDk5j4Ww4j/LZlFYHpDlwen3GnncQ1dKSRfG+CD6gttT0DEO8Svwb0NJCfSSgI84aBduWIXeIuJJziLovHgeNU9bkSx+AYIyKbAL8Dti5xGBcBJ1S162NqRGQN4EVsXtZmA2vV9RpvnTMAp2Hj/CG0n3Tn337+l/Kc/xTgKGBbd/7VJ/7G2xJ+8yklDeNbhGfeaQdxLT3XSL4nwRfUklpmAOK+z1vYnBB+B1hbVWcaaFcOETkN+GlJ5p8B9vO72vUk1pgYQXk9Bk5X1bNLsp0VItIbeBVY1UC+GRiiqu8ZaDc0dc0AnIDd9aBfuvNvHyJyNOU5/4sIb/3u/GtK/O23JTwLZfDTOAecxRDX1F8ayS9B8Am1o3YZgFhT/h1srpiNJUSSHgAsBhHZi3Dav+ggdApwuKreVrBdp4GJz+MfKP7qaRuwrz+PiydmAd4CBhnITwFWrVsPhzpmAI7EbpL/2p3/4hGRHYAbKP75e5pwr98XW+cTxGdiE8IzUiTdgBvinHAWQVxbf20k35/gG2pFrTIAItIDeAMYbCA/kVAm1gvGLAIR2ZhQnKVfwaYvBH6gqrMLtutkhIj0JKSai04JNwFfUNXnC7abFbHK43+AZQ3k3wbWUFWrEsQNR90yAPth4/whNIdx578I4qGruynW+U8G9lLV77jzdxaHqs5W1e8AexGenaLoB9wd54izEOIae4GR/GCCj6gNdcsAPANsaiDdRHj793a/C0FEBhEa+6xRoNk3CB3Z/Eqm02Hi/fO/Uvwzu52qllm5sKERkWUIWQCLF4lnVbWsWyGFU5sMgIjshI3zB7jYnf/CEZF+hDf/IhfS5wgLqTt/p1PEZ2c7wrNUFGsQMgFFb5FlQ1xrLzaS3zT6ilpQmwyAiPwF2NVAejrh5H8jtCBtOESkG+EtaniBZh8A9lDVpgJtOhUlOuM/AzsWaPY+QvaqrUCb2SAiyxNuBPQxkL9bVb9ioNtw1CIDICLrYuP8AS5z579IzqBY538rsKs7fycV8VnalfBsFcVwwtxxFkBccy8zkt81+ozKU4sAgFD204JZwK+MtLMnptKKLLN5KaGy36wCbTo1ID5T+xGesaI4rU7p6E7wK8IabEEtOjdWPgCI13oONpK/qo7lI9tDPPR3PcU9Y2ep6rGeMnWsUNU2VT2W0Ke+CLoB18e55MxHXHuvMpI/OPqOSlP5AADYExhooNuCXYOKrIn7/tcDKxZgrg04XlXPLMCW4xCfteMJz541KxKCgDqs1Z3hXMJanJqBBN9RaerwUFlVd7pOVd8y0s6d04AvFmCnDfi6qv6uAFuO8zHxmfs6xQQBX6TGHesWRVyDrzOSr3xlwErfAohFNV4HJLF0G7Cuqr6aWDd7YknT+4DuBZg7TlUvKcCO4ywQETkWKCIAbQWGq+qDBdjKChFZG3iZ9C+0CqxZ5YZhVc8AHEF65w9wizv/TyMiKxBq/Bfh/H/izt8pm/gM/qQAU90JPQNWKMBWVsS1+BYDaSH4kMpS2QyAiHQn1HZeObG0Ahup6j8T62aNiAgwEtilAHOXq+o3C7DjOO1CRC4Dimjtew/wZa3qwt1JRGQD4B+kf+F7Dxisqq2JdRuCKmcA/ov0zh9gpDv/BXIyxTj/24HjCrDjOB3hOMKzac0uhLnmzENck0caSK9M8CWVpMoBgNUBjquNdLNFRLajmDTow8BBVY3GnXyJz+RBhGfUmp/EOed8kquNdCt7GLCSWwBxn+w90u9FTwFWjH2pHUBEliCk3qwrZ70AfF5VpxjbcZxOIyL9CUHAhsamXiZsRTYb28kGEekNfAD0TyzdCqysquMS65ZOVTMAe2NzEG2EO/9P8V3snf9bhH1Pd/5OQxOf0S8TnllL1iXMPScS1+YRBtLdCT6lclQ1A/Ag8AUD6c+p6qMGulkiIoMJbyIWDTnm0ARs4bcunJyIV9OewqZl7RymE64jv21oIytEZHvgEQPph1R1BwPdUqlcBkBEVgI+ZyD9pjv/T3Ehts4f4Ah3/k5uxGfW+gpZH8IcdCJxjba4t/+56FsqReUCAGAfbD7XHw00s0VEvgrsYWzmYlX9k7ENxzEhPrtWfevnsEeci85cLNbqbgTfUikqtwUgIo8CFidk11TVNwx0s0NElgReAoYamnkO2MY7+zk5IyK9gMeATQzNjAbWV9UZhjayQUTWIFSATc0oVd3eQLc0KpUBEJHPANsaSI9y5/8JTsXW+TfhbX2dCjBPG+EmQzNDCXPSAeJaPcpAetvoYypDpQIAYF9sSv9ea6CZJfFw00nGZo5SVYsI3nEKJz7L1v3lT4pz0wlYrNlC8DGVoWoBwP4GmrOwuVqSKxcDln2yL1FV/76dShGfacveFT2xP2+QEyMIa3dqLHxMaVQmABCR1YCtDKTvVNXJBrrZISIHAMMNTTwPnGio7zhlciLhGbdieJyjtSeu2XcaSG8VfU0lqEwAAOxppOvpf0BE+gLnG5r4CN/3dyrMPOcBPjI0c36cq47d2m3lawqnSgHArgaa47BpMJEjxwCW92C/p6qvGeo7TunEZ/x7hiZWAo411M+JkYQ1PDUWvqYUKnENUET6ABOBXomlL1TV7yTWzI54lWk0dgHA48C23uLUqQOxdfbfga2NTHwADPWy5SAiFwAnJJadBSyrqtMT6xZOVTIAO5Le+YOn/+dwOHbOvxU41p2/Uxfis34s4dm3YEXsqxDmgsUa3ovgc7KnKgGARUrmJVV91kA3K0SkB/AD0eCLCgAAIABJREFUQxMXq6rlwSjHaTjiM295av8HsVNnrYlr+EsG0pXYBvAAYOH423/gIGCIkfb7wOlG2o7T6JxOmAMWDAYONtLODYu1vBIBQPZnAERkLcCiWcxQVX3LQDcbRKQbIXpex8jEQap6o5G24zQ8InIgcIOR/GuEboFWWw1ZICJDCGeYUrN27geXq5ABsIjE3qy784/shZ3zv9+dv1N34hy430h+LcK1w1oT13KLDoHZZwE8AFgwDxho5sgpRrqzgeONtB0nN44nzAkLTom3DuqOxZruAUCZxK50OxhI/81AMytE5CvYdTD7laq+YqTtOFkR58KvjOQ/C+xupJ0TFmv6DtEHZUvWZwBEZBfgrwbSK6uq1eGcLBCRUdh0VnyP0FrZW5c6TiQ6kteBlQ3kn1bVLQx0s0FEViKsPan5kqreY6BbCFlnAACL3swvu/OXHbBx/gDnufN3nE8S58R5RvKbi8iXjLSzIK7pLxtIW/igwvAA4NP4/r9dqdLxwOVG2k47EZElRWR5ERka/5bPPZVZES4nzBELvm+kmxMWa3vWAUCPsgfQWWKBmi0NpGu9/y8ig4AvG8n/pgrlMxsdEVmOsPe7DjBsnr+BwFJA94X871qBqcAE4JV5/v4NvKiqH5oPvsao6nQR+Q3wcwP5nUTkM6r6roF2LvwNOC6x5pYi0kNVWxLrFkK2ZwBEZHPgqcSyCixf54VORE7EpuvfZGA1VW0y0K41IrIU8Hngi/FvQyD1yW8FXiBcWbsfeFhVpya2UXtEpB/wH2AZA/kfqeq5BrpZEAPj8aSfG1uo6tOJNQsh5y0Ai9TLC3V2/pFDjHQvcuefDhFZSkQOFZH7gEnA/wO+C2xE+gWOqLlRtPH/gEkicl8cw1IG9mpJnCMXGclbze0siGv7CwbS2W4D5BwAbGegWff0/wbAxgbSU4ELDXRrhQR2FpHrgLHA1YQ3/jK28npE21cDY0Xkujg2v3PedS4kzJnUrCcimxro5oTFGm/hiwrBA4BPUusAADjUSPdSz6x0DRHZibDldQ/wdaBPuSP6BH0IY7oHeCqO1ekkca5caiRf6ywAHgB8gizPAIjI6sAbiWVbCT2ea5mmFpHuwDukb/s7k9BX4YPEurVARDYEzsXuYKYVI4EfqqpFyrXyiMiKhPr1vRNLjwNWyfXQWleJZywmspCDsF1gDVW1KDdsSq4ZAIuI65m6Ov/IzqR3/gC/d+ffcURksIhcAzxHfs4fwpifE5FrRGRw2YPJjThnfm8gvQJQ25oAcY1/xkA6yyyABwBzqXv63yI1qNjcKKgsIjJARM4jXL87hHznKISxHwK8IiLniciAsgeUGecT5lBqfBsgPR4AFIjFQZbaBgAxLbaHgfSoHNNiZSEiJxC2tr5P+tRvmfQmfKY34md02kGcO6MMpHcTkf4GurlgsdZnebgyuwAg9qhfP7HsbGwmWi7sC1hUgrvWQLNyxMp8NwEXAFV+Sx4AXCAiN3nlwXZjMYd6E+Z8XRlF+u6L60fflBXZDRhYk/QnoJ+oeYU6i5TgTGCEgW6lEJHPAI8A+5c9lgLZH3gkfnZn0YwgzKXU1HYbIK71TySW7UPwTVmRYwCwoYFmndP/qwKfM5C+S1WnGOhWBhHZmnC1b7Oyx1ICmxGuDG5d9kAamTiH7jKQ3j7O/bpiseZb+CZTPAAIPGegmQvDsakc5+n/RSAihwAPAiuWPJQyWRF4MH4XzsKxmEtCmPt1xWLN9wCgACy+5FcMNHPBomjLeMI9cGc+RKRbPOV/DdCr7PE0AL2Aa+ItgRzXoyIYiU2XwDoXbLJY8z0AKIDUX3IL6YsK5YTFInBjXQuNLAoRWRr4P7w164L4PvB/8Tty5iHOpRsNpOscALxBWPtT4gGAJfG62pDEsm+qanNizSwQkWHAygbSnv6fj1hpcQSwa9ljaWB2BUbE78r5JBZzauW4BtSOuOanvqI8JPqobMgqAAA2IP1+9b8T6+WExRvAy6pqUWkrd3Is51sGXyZ8V848xDn1soF0nbMAqdd+IfiobMgtAPD9/7RYTP7rDTSzRkQOBb5X9jgy4nvxO3M+icXcqnMAUPtzALkFAKkLAEFNA4DYtnUHA+m/Gmhmi4hsA1xW9jgy5LL43TlzsZhbO9S4hbPF2m/ho8zILQAYaqBZ1y2ADYGBiTUnA88m1syWWOjmdvy0f2foBdzuxYI+wbOEOZaSgWT21poQi7XfwkeZ0aPsAXQQiy+3lhkAYEcDzYdUtc1ANztEpA9wBzCo9LF0X4KeAz7DEgNWZoll5v71XCac/5w9+T2a5/2b9B6zJ72LtpZ+NnYQcIeIfK7mlToBUNU2EXkI2D2x9I7APxJr5oDF2u8BgCFDEutNVNUJiTVzwWLvr7YVFRfAVZTYIKRbr6Xov+GuLLPpnvTf8Ct0X7JjvV9aZ0xhygt/YfKztzPlhbtpmzXVaKSLZVPCd1mnUsmL4m+kDwB2IvShqBWqOkFEJgLLJpQdklDLHFG16DaZHhFZEXg/sezfVTXLNo5dIV6zmgikvrLyWVV9KbFmdojIiZTQBrlbr74su+UBLLPZnvRbbzjSI83Og7bMoulf9zH5mduZ+ORNtM2alkS3g3xXVX9ThuFGQkTWB15MLNsELKuqrYl1Gx4RGQVsm1h2JVX9ILGmCTkFAFsDjyWWvUpVD0+s2fCIyJakb4YxTlVLT3eXjYgsRygyUli7VenWg4GfP5KVdj+DJfrbVhZunvIB799xFhMevhJtK7TW0xRgDVX9sEijjYiIjAVWSCy7lao+mViz4RGRPwD/nVh2G1V9PLGmCTkdAvT9/3RYZD08/R84lQKd/4DN92G9s19i8CGXmDt/gCX6r8jgQy5hvbNfYsDm+5jbm4f+hO/WsZlrtcuERmp9DqDuAUBdbwCsY6BZ+wBARIYAxxdhq8/gjVnn9CdY/bhb6L3i2kWY/AS9V1yb1Y+7hXVOf4I+gzcuyuzx8TuuOxZzzWJNyIFa3wSoewBQ1wyARfnP2gcAwNlAT2sjAzbfh2GnjKLv0C2tTS2WvkO3ZNgpo4rKBvQkfMd1x2Ku1bIkMJ4ByIYhifXq3AQodbT/tqrW9bsEQEQ2AQ4yNsJKu/2Y1Y8dQbeefUxNdYRuPfuw+rEjWGm3H4N9TZmD4nddW+JcezuxbF0zABZNgYYk1jMjpwAgdVRVyyZAItKf9HfTH0mslyPnkr5Pxcd067kkqx9zEyvvcVYRTrbjiLDyHmex+jE30a3nkqaW8F4BkH7ODYprQ60wagrkGQADVkmsV9f0v0Wkb9GkJBtEZBdgZyv9bj37sPYPHmDAFvtZmUjGgC32Y+0fPGCdodg5fud1xmLO1TULkNoXpPZVZmQRAMSqar0Ty9Y1ALDY66vrdzmnp4LdG6kIQ468hr6rb2VmIjV9V9+KIUdeY52pOLfGNezBZs75OYA09I4+q+HJIgAAljPQHG2gmQMWk7yutykAvgKYHYNfebczir5ul4QBm+/DyrudYWliY8J3X1cs5lxdAwALX2Dhs5JT5wCgriWAU6f52oDXEmvmxGFWwgO22DccrMuUlXb7MQO22NfSxGGW4g3Oa4S5l5K6bgFY+AIPABKSumsd1DcASB3lv6WqsxJrZoGILAt8zUK7z2qbMuSIqxvzwF97EWHIEVfTZzWzlghfi79B7Yhz7q3EsnXNAFj4AguflZxcAgCLaKp2JUVjD4A1E8vWdv8fOACLVr8irHbYFQ111a+zdOvZh9UOu8IqkOlF+A3qSuq5t2ZcI+qGhS/wDEBCfAsgDUNI77DqvP9/mIXoslsdaPnWXDh9VtuUZbc60Er+MCvhDEg993qR0R32hPgWQIPjGYA0WOzx1TIDICLLA5sn1+3Rk1X2+llq2dJZZa+fIT1MiiRuHn+LOmIx9+p4DsAzAA1O6i9zmqrOTKyZA2sYaNYyAAC+iEHhnxV2Op6eA4ekli2dngOHsMJOJm0ShPBb1BGLuWexRjQ00Rek7nHtAUBCUn+ZdXz7B5sudXXdAkhe+Kd7n2VY8WunpZZtGFb82ml077OMhbRZEaYGx2Lu1a4aYCS1T/AAICGpv8w67v8DLJ1Yb6qqfpBYMxc+n1pwue0OpUff6h5q79F3WZbb7lAL6eS/RQ7EuTc1sWzqNSIXUvsEDwASkvqhrGsGIPX3ODmxXhaIyEqkv01B/w3/K7Vkw2H0GdeMv0kdST0H6xoApPYJWXyPuQQAqU8PfZRYLxeSZwAS6+XCRqkFe/RZhj6Dq9/krs/gTehhsw2Q/DfJhKbEelk4LgNS+wTztuApyCUASH11rZaFa0g/uesaSK2XWnDpdb9IW0v1z6W2tcxk6XVNzuwl/00yIfUcrGsAkNonpK8PYkAuAUDqaGp2Yr1c8AxAGtZNLdhv/Z2hrZW2WakPIzcObbOmQVtr+KzpSf6bZIIHAGlI7RM8A5AQzwCkwTMAaUhaMlV69GSpYeEcW+v0yYCmlG8QNH42WGrY5y1qAtS1jK0HAGnwDEAD4xmANHgGIA1JDwD2XHbVj8v+alsLrTOrF1e1zvwIbWsBQnngnsuumtpE8kOZmeABQBo8A9DAeAYgDZ4BSEPSKz49+g36xH9vnT4FNHWjtxLRtvCZ5mH+z5yALK5dGeCHANOQOgDwDEBCPAOQBs8AdBER6UHi53GJ+Z3hAhxmziwooPnUZ+46PeNvUzc8A5CG1C+FngFISOpoqnYBgIgI0DexbB0zAMkXyAU5w9aZTbTNnp7aVOG0zZ5O68xPv6QaBABQT+eVeg72jWtF3fAMQAOTOpqq4xZAX9L/3rXLAAD9Ugv26LfCAv/vLVM/RFubU5srDG1tpmXqguurLOwzd5Hkv00GpA4AupH+RSEHPAPQiMS0Xupx1i4DgM3bUR0zAMmdzELfhrWNlo/G53keYDFjN8oAeACQhjpmUlL7hG45bEk1fADgJMMirVfF+2qLI/1nXkTGNbxFTzAxa4fSMnXCorMXNlnmnL6kVFhEh3XcAqglDR8AqGoL0JpYtndivRywqDBTx1ThxNSCzU3jFvn/b5s9I/w7moF/U6W5aRxts2cs8l9b3GfuJMl/mwxYykCzutWoFk5qn9AafVdD0/ABQCT1/kwdAwCL/fo6BgCTUgu2NI1d7L+jzTNpbhrb2NsB2kZz01i0efEljdvzmTtB8t8mAywCgDqe7UntE7I4Z5ZLAJC6SHoWJzRToqqtpH8o6xgAzCTx99jSzrdhbZlF85QP0LbUCbGuo22tYWwt7ftq2vuZO8As0q8TOZA6AJgV14q6kdonZPEs1jUAqGMGANJH9rULAFRVgaSX9Js78Dasrc00T36PtlmN85LWNmsqzZPf69CNhY585nYyJf42dSN1ANA4D1axpPYJHgAkxLcA0pB6b692AUCktAAACCfsp35IS9O4j8vrloG2tdDSNC5c9evg1oRFAJBaMBNSBwB13P8H3wJoaDwDkAYPANIwOaVY88R3aGvu+HrR1jyD5snv0TqjqdgDgqq0zmgKmYjmRR/2WxBtzbNonvhO6lEl/U0ywgOANHgGoIHxMwBpSJ3esziAlAOvpxRra57JtNce6dz/WJXW6ZOYPeldWqdPNj0foG2ttE6fHG1N6nTQMe21R2hrx0HBDpL0N8kI3wJIg58BaGB8CyANngFIw9OpBZteuq9rAtpG64wpNE8aQ8vUCeHNPEVWQJW25hm0TJ1A86QxtM7oeqOiLn/WBZP8N8mE1HPQMwBpyGILoOErFUV8CyANfggwDU+mFmz6132som0gXY3JlbZZ02ibNQ0QpEdPui3RG1miN9J9CaRbNxZe50XRtja0tRltnklb80y0ZTZJ6+toG03/MgkAkv8mmeAZgDTUcgvAA4B6kTq6H5hYLxeeBZqBJVIJtkydwPS3n6fPapumkgQUbZlFa8ssmDHPGTnphnTrPjfY0LawdVBAjYHpbz8fKxsmpZnwm9SR5RPreQYgDVkEAHXdAuiTWC8XUkf3g3Ood50aVZ0OvJxat+mle1NLLhiNb/kts8Jfa3NhBYaMPuPL8TepFXHuDU4sW9cMQGqfkMUWQC4BQMePGi8ak1ZkGfBBYr0ewKqJNXMh+RvnpKdG0Da7ui9gbbOnMempERbSdX37X5X0WdzUa0QupPYJqX2WCbkEAOMT65m0IsuANw00VzfQzIFHUwu2TP2Q8Q9cllq2YRj/wGULbQ/cRZL/FplgMfcs1ogcSO0TUvssE3IJAFLXDe0lIv0Ta+aABwDpuA2DttITHrqC5o9MGuWUSvNH45jw0BUW0rMJv0Ud8QAgAdEXpL4GmMUkziUAsOgcUscsgAcAiVDVScD9qXXbmmcwbuT5qWVLZ9zI8ztVNKgd3B9/izriAUAaLHyBSber1OQSAFhEU3U8B/Au6d9aaxkARG6yEJ309C3MGvuahXQpzBr7GpOevsVK3uQ3yITUc282YY2oGxa+wDMACfEMQAJUtQ14K7HsGon1cuI2DK5NaVsrY249GW1pf3OdRkVbmsNnsalQOI36pv8h/dx7K64RdcMzAA2OBwDpSJ3iq20GQFWnAndbaE8b/TTv3X6ahXShvHf7aUwbbVak7+74G9SV1HOvjul/8ACg4bFIp3gAkIYBIrJMYs2cuM5KeOKTNzPh0aus5M2Z8OhVTHzyZksTZt99oxPn3IDEsh4ApMO3AFKhqtNIn2qtawDwhoHmhgaauXAn8JKV+Ad3nc3U1/K75Tb1tUf54K6zLU28RPju64rFnLNYG3IgtS+YFn1Ww5NFABBJHVHVNQCwiPK3MdDMAlVV4Kdm+m2tvH3d8cwal8/aPGvcG7x93fGmnQmBn8bvvq5YzDnPAKQhi7d/yCsASL2nsmJivVzwACA9IzDMArROn8KbF+/N1NdGWZlIxtTXRvHmxXvTOn3K4v/lzvMS4TuvMx4ApCO1L8hi/x/yCgBSR1V1Pb3+JknbuwGwdWK9rIhvomdZ2miZPpm3rjyUCY9ebWmmS0x49GreuvJQWqZPtjZ1Vs3f/iH9nFPqGwCk9gWeATAgdVS1fB0Pr8VT06kb2QwSkdreBoj8CXjR0oC2tfD+HWcy5k8no60tlqY6hLa2MOZPJ/P+HWeibebjepHwXdeWONdSp61fruONiugDUndU9AyAAf8x0FzbQDMHHjPQrPU2QHwjPaUIWxOfuJHRlx3YEOcCZo17g9GXHcjEJ24syuQp/vZvMtcs1oQcsPABFr7KhJwCAIvSaB4ApKPWAQCAqt5FQXvT00Y/xWu/3oUxt55C80fF9x1p/mg8Y249hdd+vQvTRj9VlNkR8TuuOx4ApMPCB2RTxjOnXu6vGmjWNQD4u4Fm7QOAyPHAFyjglom2tTLx8RuY/OyfGfiFo1h+h6Pp1rOvqc222dMY/+DlTHjoCtpmTze1NR9jCd+tYzPXLNaEHLDwARa+ygTJJZsmIn2B1HtUI1R1/8SaDY+ICPAhaQuJtAD9VbVQr9CIiMj+lFCjvsdSyzFgqwPot/4u9PnMhiCSRliV6e++QNNL9zDpiZusWvoujgNU1bSqUA6ISB9gCmlf3iYBy9Vxa0VEbgb2Syy7VC51ALIJAABEZAywckLJ51V1k4R62SAidwNfTiy7o6o+mFgzO0J8xU1AacFlj36D6LfecPqvvwt919wW6bFEh/732tLMtNf/zpSX7qHpX/fR0lTquaabCQFAmWNoCERkB+CBxLIjVXXXxJpZICLPARsnlHxPVVdJqGdKTlsAEFIrKQOAtRJq5cbfSR8AfA14MLFmdqgqInIcYSuglHoTLU1jmfj49Ux8/Hq69exLr4FD6NFvEEv0HxT+2W8Flugfdimap4yluWkcLU1jaZ4ylpamscya8BZtsxviJeYD4Dh3/h/zNQPNuqb/Ib0PyCb9D3kGADsk1OsrIquo6piEmrlgcehnT+B7BrrZoaoTRWR3wttanzLH0jZ7GjPeewneM6tVZMV0YHdVnVj2QBqIPQ00a3kAUERWAVIfmskqAMjpFgD4TYCUPAGkbv05VERSptOyRlWfBL4BmNbErSitwDfid+gAcW4NTSzbRlgL6kitbwBAfgGARXQ1zECz4VHVj7ApXLOXgWa2qOrtwPfLHkeGfD9+d85cLObWi3EtqCMWa79nAAyx+HJreQgwYpH68wBgPlT1AuCisseRERfF78z5JBZzq5bp/4jF2u8BgCFvkj6dukVivZy4z0BzfRGp67bKovgOcFvZg8iA2wjflTMPcU6tbyBtsQbkQuq1v5XM+ilkFQCo6mzSl1ncQER6J9bMhbuBGQa6ngWYD1VtI1wLvKrssTQwVwH7x+/K+SQWc2oGYQ2oHXHN3yCx7H+ij8qGrAKAyL8S6/WgptsAsVjFPQbSHgAsAFVtAY4Azi57LA3I2cAR8TtyPo3FnLonl4I1BmxC+ltwqX2TOTkGABaFx+u8DWCRlt5CRFY10M0eDZwOHEeonlh3Wgj3/E+vYyW69hDnksUaVectKYvvs7CmGKnwACBQ5wDgLqDZQPcbBpqVQVUvAfYh3HWvK9OBfeJ34Swci7nUTJj7dcUDADwAmMOWBppZoKqTsKned4yIdDfQrQyqegewFfBC2WMpgReAreJ34CyEOIeOMZB+MM79umKx5nsAYI2qTgBGJ5ZdS0T6J9bMCYtU4GDgvwx0K4WqvkhYjC6kHgWDWgmfdcv42Z1F81+EuZSa2qb/41qfugTw6OibsiK7ACCSOtISYPPEmjnxZ9JXBQRv39ouVHUWcCLwVeCdkodjyTuEz3hi/MzO4rGYQ22EOV9XNies+SnJ7u0f8g0ALMqD1vYcgKp+gE1BkJ1FpM4Nl9pNPBw4EtiIat7Nvg/YSFVH+mG/9hHnzs4G0o/FOV9XLNb6LEtW5xoA+DmA9FikBAU41kC3ssR9WYvaDGUzo+Z7zp3hWNK/qUKN0/8R3/+PSI7BuIj0BaYAKQ+ZTQSWr2sREhEZQvqzFQCTgFVUtYpOLTkishzwPrBE2WNJTDOwkqp+WPZAckBElgTGAAMM5Ieq6lsGug2PiHQDxgPLJpRtBfrnWFMhywxA/KJfTiy7LLBpYs1siAuCxTbAAOAgA92qsh/Vc/4QPtN+ZQ8iIw7Cxvk/VlfnH9mUtM4f4OUcnT9kGgBELPZcLPbbcuJiI93jjHSryNfLHoAhVf5sqbGaM1ZzPBcs1vgs9/8h7wDAYs+l7gHALcA4A91NRWQnA91KISJDge3KHoch28XP6CyCOFcsspHjCHO8zlis8Vnu/0PeAcDjBprbikgfA90siI0srjSSP8dIt0rU4Q25Dp+xq1jNlStza1aTkri2b2sgbeGLCiHLQ4AAIiLAWGD5xNJfVtW/JtbMhlh3fDRpD1jOYS9Vvd1AtxKIyMvAOollxwF/BVYEBsW/gXz6920FJhDm1FjgA+BLwAqJx/NvVV03sWZlEJE9sTml30o4/FflOhOLRES+BIxMLDseGJTr1dZsMwDxC7/fQLrW2wBxgbjTSP5sLw+8YERkM9I7f4A/qOohqroLocbAysCSwGqEt6Ft439eMv7/NlLVXVT1EOAPBuNZJ35WZz7i3LDqFHlnnZ1/xGJtvz9X5w8ZBwCRew00ax0ARKwOCq0HHGyknTtWqfHr5vwHVUVV21S1WVXfVtXH4t/b8f/WNt9adt2n5ZLg2wAL5mDCHLGg7of/wGZtt/BBhZHtFgB8nK5+O7GsEu4rj02smxVG6WiA/wBr13kvcn7im9+7hDR9Sv6hqht3RUBEnidkDlLyAfAZVa1D74N2ISI9gVcJ2ZjU1H7bRUQGEeprpC6sNDjnzErWGYD4xb+SWFaA4Yk1c+R3RrqrYdPdLGd2Ir3zhzRv8BZZgBUJn9mZyzHYOH+wm8s5MZz0zv+VnJ0/ZB4ARCxSMLsYaObGNcBUI+1TRWQpI+0csej33gbcmEDnRmwaRVl85iyJc+FUI/mphLlcdyzW9KzT/+ABwML4mohUsRpbu1HVJuCPRvIrAN810s6KWPJ1TwPpB1V1TFdFosaDXR/Op9gzfnYnzIXUty3m8Mc4l2tLXMu/ZiDtAUAD8ADQklhzAL4NAHAeYLVX/yMRWdNIOyd2B5Y20E2ZurfYBlia8NlrTZwDPzKSn02Yw3VnOOnLKrcQfE/WZB8AqOpHwBMG0vsYaGaFqo4GLjeSXxK4MtZzqDMWJ+JnArcm1Ls1aqam1rcB4rN/JWEuWHB5nMN1x2ItfyL6nqzJPgCIWKRi9hCRHga6uXE2YNXo4gvAN420Gx4RGUgotpOau1KmfaPWXan05uFL8TuoK98kzAELpmFXUyAb4hq+h4F09ul/8ABgUSyLn1QmXoc839DEufE6Zx2x6vx3fSaate0QGJ/5cw1NnF/3q8yRnUjf/Q88AGgongQmGujua6CZI78CrPq49wMuNdJudCxOwk8E7jbQvRubOVbX2wCXEp59Cz4kzFnHZg2fSMYdAOelEgGAqrYAdxhI+zYAH6eAf25o4isiUitHICKrA9sYSN9iUWQpalp0ktsmfhe1IT7rXzE08fO6n/wH0/T/HdHnZE8lAoCIxeI0ENjBQDdHLgYsi15cICJWV6EaEfPSvxlp1+YwYHzGLzA08Q5e9ncOOxDW8NRUpqVylQKA+4DJBrq+DQCo6izgTEMTywG/NdRvNCyc3lvAKAPdOYyKNlJTmwCA8IwvZ6h/Zpyrjs3aPZngaypBZQIAVW3GZhtgT+9g9zHXAC8b6u8rIocZ6jcEIrI5MMxA+gbLzmRR+wYD6WHxO6k08dm2fKF4Ga/6B3zcX8OiwNYd0ddUgsoEABGL1MzyeGlgAGLzFquSpXO4pAbtYq3OO1im/61tVPoMSHymLzE2c6o3WPqYXQhrd2oqk/6HzLsBzk/sqDUO6J9Y+s+qahFNZomIPIDt2Yi3gc1UdYKhjVKIbyZjgEGJpZ8yptC0AAAgAElEQVRT1U0Tay4QEXkW2CSx7FhglSo6sFjr4Gnsmv1AKP28o6F+VojI7aQ/ADgFWKFKnUwrlQGIP8ydBtJfFZGVDHRz5ShghqH+YOCmim69DCe984di3v4tbQ2iguW34zN8E7bOfwZhTjpAXKu/aiB9Z5WcP1QsAIhYpGh6AP9toJslqvo6cIaxmS9ie/WwLCwOvLURnExRWHUIrOJhwJ8TnmVLzohz0gn8N2HNTk2l0v9QsS0AABHpRdgGSF1kYzSwhuUhq5yIbzaPA9aHt/ZV1T8Z2ygEEelDSHWnboV8n6runFhzkYjIvaR/Y58KDFLV6Yl1S0FE9sHeaTwNbF3FrZPOEPsrvAEMTSzdREj/V+qGReUyAPEHsqhbPhQodJFtZOKCcwRgfSL2KhFZz9hGUexOeucPNmV6y7C5FBXpEBif2auMzTQDR7jz/wQ7k975Q+ivUSnnDxUMACJWUffRRrpZoqovYFvPHIJTuF1ErMqmFonFSfcZpO38115uxeYcSPa3AeKzejs2wd68nBvnoDMXqzW6cul/qOAWAHy8DTCG9AU3moFVvcnGXOLNi+eBdY1N/UpVTzK2YYaILA+8R/q9yZtV9YDEmu1CRG4C9k8s2wKsrKrjE+sWhoicB3zf2MzLwMZVO5TWFURkEKESYuoGWx8Sbqh4BiAH4g9lURBjCeAwA91siQvQEdgcCpuXb4vIGsY2LNkfm4NJZaT/LW33IH1QURjxGf22sZk2Qurfnf8nOQyb7prXVNH5Q0UDgMgVRrpHxYMmTkRVH8O+jG9P4JfGNiyxSG1/CIw00G0vI7HpEpnzNsAvCc+qJb+Nc86JxDXZ6iqklS8pncoGAKr6b+BhA+k1qOB95QScgk2d+HnZS0TWNraRHBFZE9jKQHpEmWVJo+0RBtJbxe8sK+KzuZexmbcIc835JMMJa3NqHo6+pJJUNgCIWEVu2e5FW6Gq04CDAOu05FrG+hbk2PmvvXiHwLlYP5uzgYPiXHM+idWaXNm3f6h+APAnYKKB7s4ikroUavbEtOQJxmYsK6pZYeHMRqvq3w10O0Qcw2gD6RwDAOtn8wRP/X+auBZbXNGeSPAhlaXSAYCqzgT+aCT/AyPdrFHVS7G9/zzYUDs5IrIlNm+GZR7+mx+LsawVv7ucsHw2r4pzy/k0VmvxH6MPqSyVDgAilxvp7isiFgUnqsBxwDNG2rn1B7B6k616AAD5ZQGsns1nCHPKmY+4Blu1WLbyHQ1D5QMAVf0XMMpAujvwPQPd7IlR896ARTe/+w00TRCRHoDFHf1nGulgUhyLRcB3QPwOc8Hi2ZwA7F31N9Eu8D1sAq9R0XdUmsoHABGrSO7w2OrTmQ9V/Q9wIJCyTOksbG52WDEcWMFAtxEO/82PxZhWIK8bNw8TntFUtAIHxrnkzEdcew83kq/82z/UJwC4BZhsoLsk8C0D3UqgqveR9srSqMwaxVjcZ2+l2M5/7eUm0gZ7c8imJkB8NlNmG0+Jc8hZMN8irMGpmUxFS//OTy0CAFWdAVxrJH+8iPQ10s4eVf0laWrVtwBnJdAphPhM7GEgfb+qfmCg2yXimCxS4HtkNr/OIjyrXeXWOHecBRCfieON5K+NPqPy1CIAiFyAzRvKcoRSuM7COYxQu7wr/EhVc0r/7wFYOK5GOvw3PxZjswqkTIjP6I+6KPMyXnJ8cRxB+l4vEHzEBQa6DUltAgBVHY1dWue7ImJRg7oSqOpUYFfguU5K3Kqqv044pCKwSF1PB24z0E3FbYQxpiabbQCA+Kx2Nuv1FLBrnDPOAohr7XeN5G+JvqIW1CYAiJxnpLsa3ip4kcSDTNvSsRoBrcAlZPY2JCJWh9fubGTHEMd2p4H08Pid5sRhhCpyHWmSdQGwvR/6WyxHY1d0ycpHNCS1CgBU9VnA6lDN6ZntVRaOqs5U1cMJTTteX8y/fh+h3elxjez0FsIB2HT+a8TT//NjMUar65RmqOpUVT2a0APiicX862OAPVT1RO/wt2jiGnu6kfx90UfUBlHVssdQKCKyM3CPkfzpqnq2kXblEJEhhBKeOxKuT/0n/v0755KnIvIEkLqK3QRgJVVNccDMjHhv/30g9fXYJ1XVoqGSObFT3abAhsAGhMqQrxICg8dV9e0Sh5cVInIa8FMj+V1U9V4j7YakdgEAgIg8B2xsIN0ErK6qFi1SnQwQkTmLe2ouVtX/MdBNjoj8FpsT2mur6msGuk4GiMhywJtAPwP551W1dv1darUFMA9W12v64a06606VO/+1F+8Q6FhwCjbOH+x8QkNT1wxAD+A1YIiB/CzCm4qn9WqIiLwGpO5l/4aqptY0RUReJ31/9tdVNcd20E4XEZHBhMxaLwP5t4C1Gn17zYJaZgDiD32+kXwv4EwjbaeBEZGtSO/8obHv/i8MizGvGb9jp36ciY3zBzi/js4fahoARH4PWO3VHyIi6xlpO42L1X11DwDmklVNAKfrxLX0ECP5Dwm+oJbUNgCIdbsvNpLvDvzMSNtpQOK20v4G0k+pqsWhQlPimJ8ykN4/sw6BTtf5GXatli/OrL9IUmobAETOByYaae8hItsbaTuNxy7A8ga6Ob79z8Fi7MsTvmunBsQ11KoU9ETstoKzoNYBgKpOAc4xNHGxv63UBosT6o3a+a+9WHUI9NsANSCunVZZWoBzog+oLbUOACK/Bd410t4QbxdceURkKWzeUu5V1bEGuoUQx25RWGWP+J071eZbhDXUgncJa3+tqX0AoKozgTMMTZwlIqsY6jvlsyfQx0A35/T/HCw+Qx/Cd+5UlLhmWrb/PiOu/bWm9gFA5Bq63q52YSwN/MZI22kMLFLS04DbDXSL5nbCZ0mNbwNUm98Q1k4LXias+bXHAwBAVVuxreC3r4j4waUKIiKDsOn8d4eqWjjOQomf4Q4D6eHxu3cqRlwr9zU0cUpc82uPBwARVf0z8Lihid+KiFUhC6c8DsDmilJOpX8Xh8Vn6U5mHQKdxRPXSMu9+cfjWu/gAcD8/MhQey3gh4b6TjlYFKYZh83hubK4l/CZUuNFgarHDwlrpRWWa3x2eAAwD6r6EHC3oYmTRSR1fXSnJERkbWBzA+mbq1SaNH6Wmw2kN4+/gVMB4tp4sqGJu+Ma70Q8APg0JwNWHZJ6AxcZaTvF46V/24+XBnYWx0WENdICxTa4yBIPAOZDVf+B7QK8q4gcbKjvFIfFSfTXVfUJA91SiZ/pdQNpvw1QAeKauKuhievj2u7MgwcAC+YkoMlQ/6LY3tLJFBHZBljdQLpKh//mx+KzrR5/CydT4lpomRltIqzpznx4ALAAVPUD4DRDE/2Bq0REDG04tli9eVYx/T8Hq8/mWYBMiWvgVYQ10YrT4pruzIeoWm13542IdCd0M9vE0MyJqnqBob5jQKxR/j4wMLH0E6q6dWLNhkJEHge2Siw7AVipSgcn64KIfAfbQmnPAVv4vf8F4xmAhRAfmGOANkMz54jIuob6jg1fIr3zh2q//c/B4jMOJPwmTkbEtc+yGVsbcIw7/4XjAcAiUNUngSsMTfQG/igiSxjacNJjcfLc6qpco3Ez4bOmxm8DZERc8/6I3al/gCviGu4sBA8AFs/JwHhD/c2A0w31nYTELnS7G0jfq6oWxXIaivgZLYoc7S4iVrXjnfScTlj7rBiPX/tbLB4ALAZVnYT9CdJTRCT1vqhjw17Akga6VT79Pz8Wn3VJvENgFsS1zrL3CsBJce12FoEfAmwnIvIQ8HlDE68Cm6jqdEMbThcRkXuAnRPLTgNWqMtvLyJ9CKWB+yaWvldVvelWAxN/++cAywqOD6vqFwz1K4NnANrPcUCzof7awP8a6jtdRERWBHYykL69Ls4fIH5Wi1bHO8XfyGlc/hdb599MWKudduABQDtR1Zewva4CcISIHGlsw+k8B+Kd/1Jh1SHwQANdJwFxbTvC2Mxv4lrttAPfAugAMX31PLbdqmYB26nqM4Y2nE4gIk+T/uDSWGCVul1VinU2xgCDEks/o6oWDZqcLiAimwGjAMuW6K8BG9cpm9ZVPAPQAeKDdQhguVj3Am4VkeUMbTgdRETWwebU8k11c/7wcZ2NmwykN4u/ldMgxLXsVmydfytwiDv/juEBQAdR1ceBXxibWQ24QUT892kcvPRverw0cMWJa9gNhDXNkl/EtdnpAL4F0AliEYsnsC0TDHC2qnqNgAZARN4EhiaWfVVVhyXWzAoReYX0h8JGq6pFoyang4jIT7HtqwLhVsFWqmp5SLuS+BtmJ4gP2sGE/XpLThWRrxrbcBaDiGxLeucP9X77n4PFdzA0/mZOicS161RjM7OAg935dw4PADpJPGlq/XALoVTwGsZ2nEVjVWbWAwC778BLA5dIXLP+SFjDLDnVT/13Ht8C6AJxf+sBbAsEAfwD2EZVZxjbceYjbve8D6Q+lPmYqvpbKvz/9u482LKquuP4d4GhGEQTURqcooAMDqFEBLTbODA5REAoZQzYBmK0KGNi/AdTlolRyypLkxhjDKQspLsFtBgaIUrFKYEWVDApRQERMQqIs4CC0LDyx9nPPOh+/d67d689nPv7VFmlVr+9b90zrHXXPmcvzGwD8LzMw/6UoUOgfhkWZmbbAV8C9g2e6j+BF7t7ZMO2UVMFYArpxDsFuCt4qn0ZKgE6XuW9lPzBH/Trf76I72InhmMnBaV71DnEB/+7gFMU/KejgDIld78FeHOBqY4B3ldgHnkodf6Lpw6B4/E+hntVtDene69MQUsAmZjZxcARBab6c3fXlsEFpO5yd5C/+c+l7q6HO+cxs08Br8g87D3ACnePrtAJYGZvAv6hwFTr3T2iI+fMUQUgn9OA2wrM8wEzO6rAPDL8klHnvzKiOgSW+DU689I9KXqrdBjusacVmGcmKAHIJPU5fzWxDYNgOGbr1D64iIgNZe4G1geM27v1DN9NbtoUKFi6F60jPp7cD7w63WslAyUAGbn7BuAtBabaDrhErwfGMbNdien8d4G2K91U+k4uCBj6JelYSoB0D7qEmErZw70l3WMlEyUAmbn7Bxmy4WiPAy5Tz4AwxxNzfejp/4VFfDdboQ6BIdK95zKGe1G0deneKhnpIcAAZrYDcBXwzALTXQkc4u73FphrZpjZNcB+mYf9IfDEWWz+sxSpQ+APgF0yD32tu0c0cppZZrYt8B/AygLTfQM4yN1/VWCumaIKQIB0oh4D3FlgupXAWjN7RIG5ZoKZ7UH+4A/wcQX/haXv5uMBQ++XjqlkkO41aykT/O8EjlHwj6EEIIi73wi8ttB0RwNr0i8omd4JQePurM2cFpa+m52Dho86pjMl3WPWMNxzSnhtupdKAN2MArn7hcB7C013LHC2AkwWURvInAicpWO0qfSdnEXcU/vaFGhK6RidzXCvKeG96R4qQfQMQLCUMV9OzBPlm/MxYLW2yJyMmT0X+HLwNB8FTtUxGswL/quDpzrA3b8SPMcopWP0UeDkQlN+DjhMS2ax9EskWDqBj2N4uKmEk4EzzSy6C9dYlfiluBpVAoCiwR9UBZhIupecSbng/wPgOAX/eKoAFGJm+zF0r9qh0JRnAq93HeAlS9WaW4EVhaac6UpA4eAPw7bOT1BgWboU/D9Cud33fgX8obtfW2i+mTbzv0BKSSf0a4BSN5/TgA8VmmssDqVc8IcZrgRUCP4wHNtDC843Bh+iXPB/AHiNgn85M3fjqcndLwPeWHDKN5iZNs9Yuhrbxs5cElAp+M/R1sBLlO4dbyg45RvTPVIK0RJABWb2LuCMglP+E/AmLQcsLG3edAfllmgebiaWAyoHfxhKzCv0XvnCUtn/H4HTC077bnd/W8H5BFUAavlrym4JezpDA6FtCs7ZmyOpF/xhBioBDQR/GI6xWskuIN0j1lE2+K9luCdKYaO92bQs/RJ/HfD5gtMex9A7YMeCc/akhSfER5sENBL857RwrJuT7g2XMdwrSvk88DpVJ+vQEkBFZva7wBXAMwpOey3wcne/o+CcTTOznRme/m9lO+VRLQc0FvwBNjK8DaC2somZrWAI/hFbYC/kOmCVu/+i4Jwyz+h+afQknfgvB24vOO1+wJVqJfwQx9JO8IcRVQIaDP4wHOtSu9k1L90LrqRs8L+d4YeIgn9F3d9geufu/wu8Ari74LS7AxvS3gTS5pPh3ScBjQb/OS0e8+LSPWADwz2hlLuBV6R7n1TU7c1lTNz9awzdA39TcNqdgS+Y2SEF52xO6hJ3YO3PsYBuk4DGgz/AgbPeITBd+18grgHT5vyGobvf1wrOKQvo7sYyVu5+OUMScF/BaXcELjWz4wvO2ZrWfwl2lwR0EPzntH7sw6Rr/lKGe0Ap9zEE/8sLzilb0M1NZRa4+6UMuwXeX3DabYC1ZvaOGe0f0EMQ6CYJ6Cj4Qx/HPisbvIPh1buSrwXfz7DL36UF55RF6C2ABpnZ0cB5lH8wbT1wkrvfVXjeKszsAODq2p9jGZp+O6Cz4D/nQHeP7v7YhPSa3xrgiMJTbwSOdfcLCs8ri2j+F8UsShfKiZTrGzDnCOBqM9uz8Ly19PY+eLOVgE6DP/R3DkwkXdNXUz74PwCcqODfJlUAGmZmJwDnUD5R+yVwwpj35TazRzC8+1/yAahcmqoEdBz8AX7EsCfAxtofJIqZvZxhd79HF576QeCP3X1d4XlliZr7JSH/L104qxkupJIeDVxiZiX7FZR2KH0Gf2ioEtB58IfhHBhth8B0DV9CneC/WsG/bdVvILJl7v4x4FSgdKlmK+BdZvaJ1ChnbHp/AKx6EjCC4D+n93NhE2a2g5l9AngX5e/zzlCh+ljheWWZtATQCTM7DfgIUONJ/a8DR7n7zRXmzi6w8993gKcAW2ced0uqLAdUCv4PALeQf9OaUXUINLPdgIuAZ1WY3oHXu/uZFeaWZVIFoBPpgjqN8g8GwnAj2ZBuLGNwFDGd/94GnELZY1S8ElAx+J/M8B3ntgPDOdG9dI1uoE7wfwA4TcG/H0oAOuLu/wYcDdxTYfoVwKfN7LEV5s4touR7F7De3dcy4iSgZvBP68nrGb7r3LpfBkjX5qcZrtXS7gGOTvco6YQSgM64+3rgMODnFaZ/GsPDgdtXmDuL1Pkv4qGvC9z9HoCxJgENBH/SdxzxStmh6dzoUromL2G4Rkv7OXBYujdJR5QAdMjdrwBewPAaW2kHAW+tMG8uUZ3/1s7/H2NLAloI/vOs3dw/nlLvHQLfynBtlnYr8IJ0T5LO6CHAjpnZk4HPAHsXnvpGd9+r8JxZmNnVwAGZh70deJK7bxLszexE4Gw6fjCwseCPmW0NfB/YNfOcX3b3VhtDbZGZ3QCU3sDreuBwdfXrlyoAHUsX3irgqsJT72lmzy4859TM7GnkD/4A524u+EP/lYCKwX/BDWTSd31uwLwHpHOkK+laLB38rwJWKfj3TQlA59z9p8DBQOld+3osl0Y96LXFknSvSUDl4P/xRf5dxDIA9PkwYOlr8TLg4HTvkY4pARgBd/81cCRDqbmUHh+Yiri5X+/u1yz2j3pLAhoP/qTv/PqAz9BjAlDyWjwbODLdc6RzSgBGIu1lvhp4T6Ep7yw0TxZmdiCwR8DQS/4l2ksS0HrwnyeiCrBHOld6UupafA/D9r6j7Zswa5QAjIgPzgCOB6Iz9K4SACqV/x+u9SSgYvA/aZnBH7QMMCf6Wvw1cLy7n+F6anxUlACMkLufC6xk2DY1So19CCaSOv8dFzD0Bnf/7nL/qNUkoHLwX/ZDfem735D/I3FcOmd6EXkt3gKsnOT4SPuUAIyUu/83sD/w2YDh7wc+GTBulEOBxwWMO/Ev0NaSgN6C/zwRVYDH0VeHwE8yXJO5fRbYP91LZISUAIxYekr3cOD9mYc+x92/n3nMSCcFjHk/cN40A7SSBHQc/GE4BhHBL+KcCZGuxXMyD/t+hnf89aT/iGkjoBmRNqQ5E9huyqEeBPZ2929P/6niBXb++5S7vzLHQDU3C0r/vdfgD4CZXQL8UY6x5umqQ2Dav+B6pv9Rdw9DQ5+o5yukIaoAzIh0Qa8EvjflUH/fS/BPXkVM5781uQaqWQmgTvA/MfOacrZjMc8ODOdOF9I1+eEph/kew3q/gv+MUAVgxqSOYecDL57gz9/m7u/O/JFCmdm/Ay/NPOxdDL8Os3ZlrFQJKGku+E+1dPJwZrYdQ5Vnx5zjAp9295dlHjNMWspZw/AW0HJ9HniNu/8k76eSlqkCMGPSBX4Y8HaW/vTwfQzvaPcW/FcQ8zDXhbmDP1SrBJQSEvzhtx0CL8w9LkOHwBqtdSeSej+cDLyTpT8X8Svgbxi6+Sn4zxglADPI3Te6+zuBJwN/Bdy2wD+9Afhb4A/cPaLMGu1YYn5Nh30XI00CwoL/PBHHZGs62/I6XdtvB54NrGPh/UDuAz4I7O7u79DmPrNJSwCCmW0D7AM8at5/vunu/1P1g03JzL4MPDfzsD8EnrhQ859cRrQc8ABwgrufHzlJ6hD4A2CXzEN/xd0jGkgVYWaPZHj250nATgzv9V/P0NEzexVL+qIEQEbJzPZkqGDk9gF3/8uAcTcxgiRgI8Mv/9DgP8fM3g/8RcDQe7n7jQHjilSlJQAZqya2/p1G58sBRYN/oq2BRZZBFQAZJTO7Cdg987DXu/s+mcdcVIeVgBrBHwAz+xawd+Zhv+PuEY2kRKpSBUBGx8wOIn/wh4K//ufrrBJQLfgnEcdo93ROiYyKEgAZo6iS7bqgcRfVSRKwkQIP/C0i6hhpGUBGR0sAMiqpi9tt5G/+s8HdV2Yec9kaXg6YC/6fqP1BzOxK4PmZh/0x8Hi9LidjogqAjM1hNNb5L6dGKwHNBP8kqkPgYQHjilSjBEDGJqrzX82y9kM0lgS0FvxhOFYz3SFQZCmUAMhopE1PjgwY+jOtbZPaSBKwETi+seA/t931ZwKGPjKdYyKjoARAxuQoYPuAcZso/z9c5SRgLvh/ssLcSxFxzLZnOMdERkEJgIxJRIn2LuDigHFzWQd8rsK8XwQuqDDvUl3McOxy0zKAjIYSABmF1LXtkIChQzr/5WBmBnyImI6HizkYOCu1oG1OYIfAQ3rqECiyJU1evCITOI6YV+OaLP+n4P/PwBsqfozVNJwEEHPstmY410S6p30AZBR67vy3XPOC/5/V/izJR4FTUz/6ZqhDoMiWtZq5iyxZ6vyXO/gDnKvgvyRNVgLSsTs3YOjnpnNOpGtNXbAiE4rapnVN0LgTaTT4z2kyCSDuGGprYOmelgCke0Gd/25w99xd5SbWePCfr7nlADO7Htgr87DqECjday1bF1mWsXX+25yOgj+0WQlQh0CRzWjpIhWZRNR72U0kAJ0F/zmtJQFRx1J7AkjXtAQg3Uqd/24HHpt56C+5e+5ucsvWafCfr5nlADPbADwv87A/AXZVh0DpVSsZusgkDid/8IcGHv5Lwf/D9Bv8oa1KQMQxfSzDOSjSpRYuTJFJRTyJvZHKnf/mBf/X1/wcmbSSBJzPcGxz09sA0q3aF6XIRMba+W9kwX9O9SRAHQJFNqUEQHr1KmI6/1Ur/480+M+pngQQc2y3ZzgXRbqjBEB6FfEE9t3A+oBxF1Up+D9A2VbCtZOA9QzHODe9DSBdUgIg3TGzXRi60eV2gbv/OmDcLaoY/E9J/5mJJCAd24gWxgenc1KkK0oApEej6fxXM/i7+1p3X8sMJQGoQ6DIb2kfAOmOmX0F2D/zsMU7/9UO/g/7LCcCZxOTWC2k+D4BgR0Cv+ruEQ2pRMKoAiBdMbO9yB/8oXDnv5aCP8CsVAICOwTun85NkW4oAZDeRL13Xaz8n4L/v9BI8J8zK0kAccdaewJIV7QEIF0xs+8Au2Uetljnv3nB/09LzJcsGvznm4XlgKAOgTe7e0RjKpEQqgBIN8zseeQP/lDo138PwR9mphIQccx3S+eoSBeUAEhPuu3810vwnzMDSYA6BMrM0xKAdMHMfge4jQ47//UW/Ocb83JAYIfAx7v7/ZnHFclOFQDpRVTnv9Bf/z0Hfxh9JSDi2KtDoHRDCYD0Iqrz33kB4wL9B/85I04CzkMdAmWGKQGQ5vXY+W8swX/OGJMAdQiUWacEQHpwNLBdwLgh5f+xBf85Y0wCiDkHtmM4Z0WapgRAehBRUr0buDj3oCn4f4SRBf85I0wCLiamQ6CWAaR5SgCkaYGd/y7M3flvXvA/Lee4iygW/OeMKQlI58CFOcdM1CFQmqcEQFoX1flvTc7BZiX4zxlTEkDmcyFRh0BpnvYBkKaZ2VeB52Qe9g7gCbma/8xa8J9vDPsEpA6BtwIrcow3zzXuHtG4SiQLVQCkWWa2N/mDP2Ts/DfLwR/GUQkI7BD4nHQOizRJCYC0LOpBqiwl31kP/nPGkAQQswwAehhQGqYlAGlWUOe/G9196i5wCv6b6n05wMxuAPac/iM9hDoESrNUAZAmmdnzien8N/UvPQX/zRtBJSCqQ2BorwmRSSkBkFZFlU7XTfPHCv5b1nkSEPX9ahlAmqQlAGlO6vx3O7BT5qGvcveJu7+l4P+vwKn5PtKiugn+8/W6HGBmXwIOyveRAPgpsKs6BEprVAGQFh1O/uAPU5T/FfyXp+NKQMTDgDuhDoHSICUA0qKTAsbcCJw/yR8q+E+m0yTgfGI6BEac0yJTUQIgTTGzHYEjAoa+3N1/PMHnUfCfQm9JQDpHLs//kTgindsizVACIK2J6vy37NKugn8evSUBxCwDqEOgNEcJgLSmic5/Cv55dZYEqEOgzAQlANIMM9sVeEnA0Mvq/KfgH6OXJCCwQ+BL0jku0gQlANKSqM5/Sw6qCv6xekkCiNkTQB0CpSnaB0CaYWbXAPtlHnbJnf9S8D8T+JPMn2FLZib4z9f6PgGBHQKvdfeIBlciy6YKgDQhdU3LHfxhiZ3/FNn8Sz8AAAZPSURBVPzLar0SENghcD91CJRWKAGQVkS9J71ocFXwr6P1JIC4rYG1J4A0QUsA0gQzuxl4auZhF+38p+BfX8vLAUEdAr/r7hGNrkSWRRUAqc7MVpI/+MMiv+AU/NvQeCUg4jg9NZ3zIlUpAZAWRL0fveDNW8G/LQ0nAeoQKKOlJQCpqkbnPwX/drW4HKAOgTJWqgBIbS8lpvPfZgOtgn/bGq0ERBy3nRjOfZFqlABIbVGd/857+P+p4N+HBpOA84jpEKhlAKlKCYBUk7qjvTJg6E06/6XgfxYK/l1oKQlQh0AZKyUAUlNU57+HBNx5wf91AXMtRMF/Si0lAcQsA6hDoFSlBEBqiij/3w1cNPc/FPz71lAScBExHQK1KZBUowRAqgjs/HfRXOc/Bf9xaCEJSOfURVv+k4moQ6BUowRAajmemPNvDSj4j00LSQDp3MpsK4ZrQaQ47QMgVUR2/gMeRMF/lGruEwAY6hAoI6IKgBRnZvsQ0/nvPBT8R61mJQBwNvN6aQb7pWtCpCglAFJD1PvP61DwH73KScC6oPG1J4AUpyUAKSqtzd8MPCXz0DcB/8Vwoy5Fwb+iissBLwD2yDzuLcBurhuyFKQEQIpKXdCuCBj6XmDbgHEXouDfgEpJQNS5tsrdrwwYV2SztAQgpUW996zgP4MqLQdEnWvaE0CKUgVAigns/FeSgn+DKlUCclOHQClKFQAp6WUo+EuASpWA3HZiuEZEilACICX1/KSzgn/jRpIE9HyNSGe0BCBFmNmjGDbqKblWn4uCf0c6Xw64F1jh7nfW/iAyfqoASClHo+AvBXReCdgWdQiUQpQASCk9PuGs4N+pzpOAHq8V6ZCWACScmT0e+D59JZwK/iPQ6XLAg8CT3P222h9Exq2nG7L0K6rzXxQF/5HotBKgDoFSRE83ZelXT082K/iPTKdJQE/XjHRKSwASysyeDlxX+3MskYL/iHW4HPAMd/9m7Q8h46UKgETr5ZeMgv/IdVgJ6OXakU6pAiBhAjv/5abgP0M6qgTcgjoESiBVACTSShT8pTEdVQKewnANiYRQAiCRWn+fWcF/RnWUBLR+DUnHtAQgIcxsG4bOf4+p/VkWoOAvPSwH/IyhQ+B9tT+IjI8qABLlZSj4S+M6qAQ8BnUIlCBKACRKq08wK/jLQ3SQBLR6LUnntAQg2TXc+U/BXxbU8HKAOgRKCFUAJMIxKPhLZxquBGzLcE2JZKUEQCK0VrJU8JclaTgJaO2akhHQEoBk1WDnPwV/WbYGlwPUIVCya+UmLePRUuc/BX+ZSIOVAHUIlOxauVHLeLSycYmCv0ylwSSglWtLRkJLAJJNQ53/FPwlm8aWA9QhULJRBUByauEXioK/ZNVYJaCFa0xGQhUAySJ1/vsu8PsVP4aCv4RppBLwPeCp6hAoOagCILmsQsFfRqyRSsDvM1xrIlNTAiC51HxPWcFfimgkCdCeAJKFlgBkapU7/yn4S3GVlwPUIVCyUAVAcqjV+U/BX6qoXAlQh0DJQgmA5FDjyWQFf6mqchKgtwFkaloCkKmY2aOBH1K2+Y+CvzSj0nLAvcAu7v7LgnPKyKgCINMq3flPwV+aUqkSoA6BMjUlADKtkk8kK/hLkyolAXobQKaiJQCZWCr//4wyiaSCvzSv8HLAg8BjtAwgk1IFQKaxNwr+Ir9VuBKwFcM1KDIRJQAyjT0LzKHgL10pnASUuAZlpJQAyDSibz4K/tKlgknA04LHlxFTAiDTiLy5KfhL1wolAXqISyamBECm8bWgcRX8ZRQKJAHXBo0rM0BvAcjEzGxn4I7Mwyr4y+gEvh2wwt1/lHlMmRGqAMjE0o3nuoxDKvjLKAVVAq5T8JdpKAGQaZ2RaRwFfxm1gCQg17UnM0oJgEzF3dczlDanoeAvMyFjEnB2uvZEJqZnAGRqZvZ7wLeAFRP8uYK/zJwpnwm4A9jH3X+e91PJrFEFQKaWbkSrgCuW+ac3AS9S8JdZk875FzFcA8txBbBKwV9yUAIgWbj7TcALgdOBXyzyz38B/B2wr7svN2kQGYV07u/LcC0s5Zo5HXhhutZEpqYlAMnOzFYwrHM+C3gmw25ltwLfBL4InOXud9f7hCJtMbNHAqcyJNFPB54AfBv4BvB1hjX/3K/cyoz7P1zpU/du4saBAAAAAElFTkSuQmCC;" vertex="1" parent="WIyWlLk6GJQsqaUBKTNV-1">
          <mxGeometry x="980" y="529" width="52" height="52" as="geometry" />
        </mxCell>
        <mxCell id="ASZsgvlguslv8uvF_fy1-32" style="edgeStyle=orthogonalEdgeStyle;rounded=0;orthogonalLoop=1;jettySize=auto;html=1;exitX=1;exitY=0.5;exitDx=0;exitDy=0;entryX=0;entryY=0.5;entryDx=0;entryDy=0;" edge="1" parent="WIyWlLk6GJQsqaUBKTNV-1" source="ASZsgvlguslv8uvF_fy1-28" target="ASZsgvlguslv8uvF_fy1-31">
          <mxGeometry relative="1" as="geometry" />
        </mxCell>
      </root>
    </mxGraphModel>
  </diagram>
</mxfile>
